<?xml version="1.0" standalone="no"?>
<!DOCTYPE svg PUBLIC "-//W3C//DTD SVG 20010904//EN"
 "http://www.w3.org/TR/2001/REC-SVG-20010904/DTD/svg10.dtd">
<svg version="1.0" xmlns="http://www.w3.org/2000/svg"
 width="478.000000pt" height="478.000000pt" viewBox="0 0 478.000000 478.000000"
 preserveAspectRatio="xMidYMid meet">
<metadata>
Created by potrace 1.11, written by Peter Selinger 2001-2013
</metadata>
<g transform="translate(0.000000,478.000000) scale(0.100000,-0.100000)"
fill="#000000" stroke="none">
<path d="M2661 4687 c-5 -5 -17 -10 -27 -11 -11 -2 -19 -10 -19 -19 0 -9 -5
-17 -10 -17 -6 0 -10 4 -10 9 0 18 -15 23 -21 7 -3 -9 -12 -16 -20 -16 -8 0
-15 -8 -15 -17 -3 -41 -5 -46 -16 -50 -7 -3 -13 0 -13 7 0 6 5 8 10 5 17 -10
11 4 -9 24 -16 16 -20 17 -25 5 -3 -9 -11 -12 -17 -8 -8 4 -9 3 -5 -5 6 -9 11
-9 22 0 10 8 14 8 14 0 0 -12 -9 -14 -55 -13 -16 1 -35 -4 -43 -10 -10 -9 -16
-8 -24 3 -8 11 -9 11 -4 -3 3 -10 1 -20 -4 -23 -6 -4 -10 -1 -10 6 0 7 -3 9
-7 6 -3 -4 -12 -2 -20 4 -7 6 -13 8 -13 3 0 -5 -5 -2 -10 6 -5 8 -17 15 -27
15 -10 0 -17 5 -16 12 2 12 -35 11 -55 -1 -6 -3 -14 -1 -18 5 -4 7 -3 9 4 5 6
-3 13 -2 16 3 4 5 -2 8 -11 6 -10 -1 -17 -9 -15 -16 6 -23 45 -41 40 -18 -2 6
4 14 12 16 13 4 13 3 0 -6 -8 -6 -11 -11 -6 -11 6 0 5 -5 -1 -11 -8 -8 -17 -8
-30 -1 -14 9 -20 6 -30 -11 -7 -12 -12 -16 -13 -9 0 7 -4 10 -10 7 -6 -3 -7 1
-3 10 4 12 8 13 13 5 5 -8 9 -7 13 4 9 24 -10 29 -26 6 -7 -11 -16 -17 -19
-14 -3 3 -22 -4 -42 -15 -20 -12 -38 -21 -41 -21 -3 0 -9 0 -14 0 -5 0 -15
-16 -22 -35 -7 -19 -16 -30 -19 -25 -10 16 -53 -10 -81 -47 -21 -28 -50 -48
-34 -24 3 5 0 13 -6 17 -7 4 -9 3 -5 -4 3 -6 -3 -13 -14 -17 -11 -4 -18 -10
-15 -15 3 -4 -3 -7 -13 -6 -10 0 -16 -5 -14 -13 3 -12 0 -12 -12 -2 -9 7 -14
17 -11 21 3 4 -9 6 -25 5 -17 -1 -30 1 -30 5 0 5 -12 7 -27 5 -16 -2 -34 2
-41 7 -9 8 -11 7 -7 -4 4 -9 0 -15 -10 -15 -8 0 -15 4 -15 7 0 17 28 29 56 25
16 -2 23 -2 16 1 -6 3 -9 11 -5 17 3 7 3 9 -2 5 -4 -4 -17 -3 -28 3 -14 8 -18
8 -13 0 5 -7 1 -9 -9 -5 -12 5 -13 9 -4 20 19 23 2 16 -22 -8 -12 -13 -18 -17
-14 -9 5 9 4 12 -2 8 -6 -4 -13 1 -15 11 -3 10 -12 19 -21 19 -9 0 -14 -4 -11
-9 3 -5 10 -6 15 -3 5 4 9 -1 9 -10 0 -12 -4 -14 -19 -5 -27 14 -34 13 -27 -5
3 -8 -2 -19 -12 -24 -14 -8 -14 -10 -2 -11 13 0 13 -1 0 -11 -12 -8 -10 -9 7
-4 18 5 21 2 18 -13 -3 -20 9 -23 31 -9 7 4 15 -1 19 -11 11 -24 15 -45 7 -37
-4 4 -8 11 -8 16 -1 5 -2 11 -3 14 0 3 -10 1 -20 -5 -13 -6 -22 -7 -26 0 -3 5
-12 7 -20 3 -8 -3 -15 0 -15 7 0 6 -4 9 -9 6 -8 -5 -8 22 -1 32 2 1 3 7 4 12
0 6 7 15 15 19 8 5 9 11 3 15 -5 3 -12 -1 -16 -9 -6 -17 -36 -21 -36 -4 0 5
-4 7 -10 4 -5 -3 -10 -14 -10 -23 0 -12 3 -13 8 -5 5 8 13 9 22 3 13 -8 12
-10 -2 -11 -10 -1 -24 -2 -30 -3 -7 -1 -20 1 -29 6 -10 4 -21 3 -27 -5 -6 -7
-25 -14 -43 -15 -18 -1 -39 -8 -48 -15 -12 -10 -14 -9 -8 8 6 18 5 18 -12 -2
-11 -13 -24 -23 -30 -23 -6 0 -11 -6 -11 -14 0 -8 -4 -16 -9 -18 -6 -1 -12
-15 -15 -31 -3 -16 -1 -25 5 -22 5 4 9 -3 9 -15 0 -12 -4 -19 -8 -16 -4 2 -9
-4 -9 -15 -1 -11 2 -17 8 -14 7 5 12 -15 8 -41 0 -4 5 -11 13 -15 10 -7 10 -9
0 -9 -8 0 -10 -8 -6 -24 3 -13 1 -27 -4 -30 -6 -3 -9 12 -7 39 1 25 -1 47 -4
49 -3 2 -7 -19 -8 -47 -1 -37 3 -54 15 -64 9 -7 13 -13 7 -13 -5 0 -5 -4 2 -8
6 -4 13 -14 15 -22 4 -19 21 -39 30 -34 8 5 5 -17 -6 -34 -6 -10 -3 -12 10
-10 13 2 19 -4 20 -19 3 -42 4 -44 21 -41 10 2 18 -1 18 -7 0 -5 4 -16 9 -24
6 -9 5 -12 -2 -7 -13 8 -31 -22 -27 -45 2 -9 -3 -16 -11 -16 -9 0 -11 4 -4 12
6 7 5 16 -3 25 -10 10 -9 11 2 5 10 -6 13 -4 8 7 -3 9 0 21 6 27 8 8 8 11 -1
11 -7 0 -15 -7 -18 -15 -4 -8 -10 -15 -16 -15 -5 0 -6 5 -3 10 3 6 2 10 -2 10
-5 0 -14 -10 -22 -21 -12 -20 -11 -21 6 -15 14 6 15 4 6 -5 -13 -13 -37 -3
-28 12 4 5 1 9 -5 9 -6 0 -8 5 -4 11 4 8 9 7 15 -2 5 -8 9 -9 9 -4 0 6 -5 17
-10 25 -9 13 -10 13 -10 0 0 -13 -1 -13 -10 0 -13 21 -12 39 1 20 9 -12 10
-11 4 5 -6 20 -6 20 13 0 11 -11 17 -24 15 -28 -3 -5 4 -4 16 2 23 13 27 26
11 36 -6 4 -7 -1 -3 -11 4 -12 2 -15 -8 -12 -8 3 -13 13 -11 22 2 9 -1 16 -5
15 -19 -3 -33 2 -33 12 0 8 4 8 14 0 11 -10 14 -9 12 1 -1 7 -6 19 -10 27 -6
9 -5 12 1 8 5 -3 10 0 10 7 0 8 -7 12 -16 9 -10 -3 -12 -1 -6 4 6 4 11 15 13
23 2 8 0 12 -4 8 -4 -4 -13 0 -20 10 -12 16 -13 15 -11 -5 0 -12 5 -19 11 -16
5 4 7 0 4 -9 -4 -8 -2 -21 2 -29 5 -8 5 -19 -1 -26 -6 -7 -8 -17 -4 -23 3 -5
-1 -13 -10 -16 -14 -6 -14 -9 -2 -28 8 -11 13 -31 12 -44 -1 -12 4 -27 11 -33
7 -6 10 -18 7 -27 -4 -14 -3 -15 5 -2 6 8 8 18 6 22 -3 4 -1 8 5 8 15 0 9 -39
-7 -45 -7 -3 -10 -11 -7 -17 4 -7 0 -5 -8 5 -20 24 -27 21 -14 -7 7 -13 15
-22 18 -20 10 6 5 -24 -6 -33 -4 -4 -5 -2 -1 5 9 16 -24 13 -37 -3 -5 -6 -7
-4 -4 5 2 8 10 14 16 12 6 -1 11 2 11 8 0 12 -13 13 -24 3 -4 -5 -13 -8 -18
-8 -6 0 -13 -7 -15 -15 -4 -13 -3 -13 6 0 9 13 11 12 11 -4 0 -14 -5 -17 -21
-13 -16 4 -18 3 -8 -9 6 -7 16 -11 23 -7 6 3 3 -3 -7 -15 -11 -12 -25 -18 -34
-15 -12 5 -13 2 -5 -14 15 -28 -1 -51 -22 -33 -14 11 -16 10 -10 -4 3 -9 12
-16 20 -16 8 0 14 -5 14 -11 0 -6 -8 -8 -19 -4 -28 8 -46 -19 -26 -39 20 -19
29 -21 18 -3 -11 18 -12 37 -2 37 5 0 9 -8 10 -17 0 -10 2 -26 4 -35 2 -10 -2
-16 -8 -15 -6 1 -13 -8 -15 -20 -2 -13 -9 -23 -15 -23 -7 0 -7 -4 2 -9 17 -11
24 -41 9 -41 -6 0 -8 7 -5 14 4 10 1 13 -8 10 -8 -3 -11 -12 -9 -19 3 -7 0
-16 -5 -20 -13 -7 -5 -25 11 -25 5 0 8 7 4 15 -3 8 -1 15 4 15 18 0 10 -35
-11 -48 -14 -9 -18 -17 -11 -25 6 -7 11 -16 12 -22 3 -30 13 -55 21 -55 5 0 9
-5 9 -11 0 -5 -4 -7 -10 -4 -6 3 -7 -1 -4 -9 7 -19 21 -21 26 -4 3 8 7 6 11
-5 3 -9 1 -19 -5 -23 -7 -5 -8 -2 -3 6 5 8 4 11 -3 6 -6 -4 -9 -13 -5 -22 4
-11 8 -12 19 -3 12 10 13 8 8 -6 -6 -14 -4 -16 7 -11 8 4 6 1 -4 -7 -18 -15
-18 -15 2 -22 12 -3 21 -11 21 -16 0 -5 5 -9 11 -9 6 0 9 7 5 15 -3 8 -1 15 4
15 6 0 10 -7 10 -16 0 -9 10 -25 22 -35 l23 -20 -24 7 c-21 5 -22 4 -10 -9 8
-8 17 -13 22 -10 4 2 7 -1 7 -7 0 -6 5 -8 10 -5 6 3 10 2 10 -3 0 -17 40 -21
56 -5 23 23 27 10 4 -15 -18 -19 -18 -21 -2 -26 25 -8 89 -16 74 -10 -6 3 -9
10 -6 15 3 6 12 5 22 -3 9 -7 13 -8 9 -2 -6 11 2 14 71 29 6 2 12 0 13 -3 0
-4 2 -18 5 -31 2 -13 -2 -34 -10 -46 -9 -14 -11 -27 -5 -37 5 -9 7 -32 5 -51
-6 -48 9 -69 25 -34 8 18 9 30 2 39 -15 19 -24 64 -17 82 5 14 8 14 23 -2 9
-10 13 -13 10 -7 -16 27 -16 54 0 61 9 4 20 6 25 5 5 -1 4 5 -4 13 -15 19 -21
20 -18 5 2 -6 -4 -14 -12 -16 -12 -4 -12 -3 -2 5 8 5 14 13 15 18 1 5 8 8 17
6 11 -2 9 2 -5 14 -20 16 -20 16 3 11 14 -3 22 -1 22 8 0 16 27 28 35 15 9
-15 78 -3 87 15 6 9 24 15 48 15 34 0 41 4 46 25 3 14 13 29 22 34 14 8 14 11
2 27 -13 15 -13 16 -1 9 11 -6 13 -4 8 7 -3 9 6 32 19 52 28 41 30 42 38 20 4
-10 2 -13 -7 -8 -6 4 -4 -2 6 -13 9 -11 23 -38 30 -59 20 -64 68 -131 111
-155 71 -40 97 -79 102 -152 3 -44 -2 -63 -32 -119 -19 -37 -39 -92 -45 -122
-11 -50 -14 -56 -42 -62 -44 -9 -58 -27 -118 -141 -13 -24 -26 -43 -31 -43 -4
0 -8 -6 -8 -14 0 -7 -11 -29 -24 -49 -13 -19 -22 -38 -18 -41 3 -3 0 -6 -6 -6
-7 0 -12 -7 -12 -15 0 -8 -5 -15 -11 -15 -5 0 -8 -4 -5 -8 3 -5 -3 -18 -13
-29 -29 -31 -23 -106 11 -138 15 -14 32 -25 38 -25 5 0 10 -4 10 -10 0 -5 6
-10 14 -10 8 0 18 -10 21 -21 6 -17 9 -19 16 -8 7 11 9 10 9 -4 0 -12 4 -16
13 -11 9 6 9 4 -1 -8 -11 -14 -11 -16 5 -12 25 7 74 -43 54 -55 -7 -5 -12 -11
-12 -15 3 -23 0 -36 -9 -31 -6 3 -7 -1 -4 -10 7 -18 -12 -71 -36 -100 -9 -11
-22 -32 -30 -47 -7 -16 -15 -26 -17 -24 -2 2 -22 -14 -44 -35 l-40 -38 -22 20
c-12 11 -30 27 -40 37 -14 13 -20 14 -26 4 -8 -13 -10 -7 -52 112 -20 55 -34
55 -34 -2 0 -62 -67 -202 -93 -195 -11 3 -24 -7 -36 -28 -10 -17 -25 -39 -33
-48 -8 -9 -22 -27 -32 -40 l-18 -24 -36 38 c-30 32 -35 44 -35 83 0 26 6 64
13 84 7 21 11 38 9 38 -4 0 -35 -59 -33 -62 6 -9 -27 -78 -37 -78 -23 0 -39
33 -38 83 1 44 -1 48 -13 32 -12 -17 -13 -17 -15 11 0 16 0 43 1 59 4 41 -18
20 -22 -23 -2 -18 -7 -35 -10 -39 -4 -3 -4 -17 -1 -29 4 -13 3 -31 0 -41 -6
-14 -8 -14 -20 3 -8 10 -12 23 -9 28 4 5 1 6 -5 2 -6 -4 -9 -13 -6 -20 3 -7
-4 -29 -15 -47 -17 -27 -21 -30 -22 -14 -1 29 2 95 6 117 12 59 -35 -28 -49
-92 -3 -14 -11 -33 -19 -44 -12 -16 -16 -17 -35 -5 -12 8 -22 22 -22 31 0 11
-5 15 -14 12 -9 -4 -14 -16 -12 -32 2 -15 -1 -36 -5 -47 -9 -18 -9 -18 -5 2 2
13 0 26 -5 29 -5 3 -9 -2 -9 -11 0 -9 -4 -13 -10 -10 -5 3 -10 0 -10 -7 -1 -8
-7 -5 -16 7 -15 19 -16 18 -9 -12 4 -18 3 -33 -2 -34 -50 -4 -66 -18 -87 -74
l-15 -40 3 35 c4 46 19 73 49 89 28 15 33 56 8 67 -25 11 -111 13 -117 3 -3
-5 -13 -9 -22 -9 -18 0 -52 -33 -52 -51 0 -5 15 -16 33 -24 17 -8 29 -14 25
-15 -4 0 -3 -14 2 -30 9 -33 -4 -32 -28 2 -7 10 -20 18 -28 18 -8 0 -18 8 -21
17 -5 13 -9 9 -19 -18 -6 -19 -17 -33 -23 -31 -7 1 -11 -3 -10 -10 3 -28 -1
-43 -9 -31 -9 15 -37 -13 -37 -37 0 -8 -10 -17 -22 -20 -27 -6 -93 -59 -93
-74 0 -6 -14 -20 -30 -31 -17 -11 -29 -27 -28 -36 2 -8 -4 -26 -13 -40 -31
-48 -33 -52 -20 -44 8 4 6 -3 -3 -18 -9 -13 -18 -33 -20 -43 -3 -11 -9 -32
-16 -49 -15 -39 -15 -152 0 -171 8 -9 10 -35 6 -77 -5 -58 -3 -66 24 -107 21
-31 30 -58 30 -85 0 -27 3 -35 9 -26 12 19 3 68 -21 114 -13 27 -17 48 -13 66
4 14 9 39 12 56 7 42 30 83 53 95 11 6 20 8 20 4 0 -3 8 0 17 7 14 12 15 12 9
1 -7 -11 -4 -12 11 -3 11 6 23 7 27 4 3 -3 6 -1 6 6 0 7 4 9 10 6 5 -3 31 1
58 8 78 24 189 6 176 -28 -5 -11 0 -15 17 -13 13 2 24 -2 24 -9 0 -20 14 -26
29 -14 11 9 15 7 19 -10 5 -19 8 -21 22 -9 15 12 18 12 27 -4 9 -16 11 -16 28
-1 17 15 19 15 28 -2 10 -17 11 -17 17 -1 5 13 14 16 31 12 14 -4 24 -2 24 5
0 6 10 10 22 8 17 -1 24 4 26 21 2 12 8 20 13 17 14 -9 11 -45 -3 -46 -7 0 -3
-5 9 -11 13 -6 23 -14 23 -18 0 -3 8 -15 18 -26 12 -13 21 -43 25 -84 4 -35
12 -69 17 -74 6 -6 10 -29 10 -52 0 -28 5 -44 15 -47 11 -5 12 -12 3 -37 -5
-17 -8 -34 -5 -37 3 -3 10 10 15 28 7 25 6 40 -4 56 -9 14 -10 24 -4 28 6 4 7
12 3 18 -4 7 -9 43 -10 82 -2 38 -4 77 -5 85 -5 53 3 78 26 84 13 3 45 21 72
39 45 30 54 33 102 28 l53 -6 24 -58 c12 -32 28 -64 35 -72 6 -8 9 -19 5 -25
-9 -15 17 -12 39 5 10 7 15 18 12 24 -4 5 -2 12 3 16 6 3 7 15 2 28 -19 50 -2
51 104 1 17 -8 42 -15 57 -16 31 -3 41 -19 32 -51 -3 -16 4 -30 25 -51 l31
-29 55 15 c50 14 56 14 68 -1 8 -9 13 -34 13 -55 -1 -37 2 -40 42 -58 l43 -19
19 24 c30 37 68 33 110 -12 24 -26 43 -38 60 -37 21 1 25 -3 26 -29 1 -33 30
-75 51 -75 7 0 13 -4 13 -10 0 -5 7 -10 15 -10 8 0 15 -4 15 -8 0 -4 14 -13
31 -19 21 -8 28 -16 23 -25 -4 -7 -4 -10 1 -6 8 8 86 -28 96 -44 3 -5 15 -11
25 -12 12 -2 19 -11 19 -26 0 -13 6 -24 13 -26 7 -1 8 0 2 3 -19 9 -10 21 16
21 18 0 22 -3 13 -9 -11 -7 -11 -9 -1 -10 21 -3 26 -4 50 -18 13 -7 30 -10 37
-7 8 3 15 0 17 -5 2 -6 15 -1 29 10 15 11 29 17 33 14 5 -6 10 12 7 29 0 5 2
7 7 7 4 -1 14 -1 22 0 13 1 13 3 0 12 -13 9 -12 10 3 5 15 -5 17 -2 13 17 -3
12 -3 16 0 9 3 -6 10 -10 15 -7 5 4 6 -2 2 -11 -6 -15 -4 -15 20 1 14 9 28 15
31 13 2 -2 8 0 12 5 4 4 2 7 -4 7 -7 0 -11 3 -11 8 3 19 -2 33 -11 27 -5 -3
-7 -12 -4 -19 3 -8 1 -16 -3 -19 -12 -8 -39 10 -30 20 5 4 12 1 17 -7 6 -9 10
-10 10 -3 0 6 -5 15 -10 18 -14 8 7 35 23 32 7 -1 12 6 12 15 0 22 12 33 12
10 0 -9 -4 -22 -9 -28 -6 -8 0 -12 18 -12 18 0 22 4 15 11 -17 17 -13 40 5 33
10 -4 14 -2 11 6 -2 7 -10 12 -16 11 -6 -2 -11 2 -11 7 0 6 5 10 11 10 6 0 8
7 5 16 -3 9 -2 12 5 9 6 -4 8 -13 5 -21 -3 -7 -1 -16 4 -19 9 -6 14 8 11 28
-1 5 3 6 9 2 6 -3 8 -10 5 -15 -3 -4 7 -15 21 -25 18 -12 25 -13 23 -3 -3 24
1 38 11 38 5 0 9 -5 7 -11 -1 -6 4 -14 12 -17 8 -2 11 0 7 6 -3 6 1 9 11 7 11
-1 17 -9 15 -21 -3 -15 -1 -16 12 -5 9 7 13 18 9 25 -3 6 6 0 22 -14 19 -16
26 -20 22 -9 -4 12 0 16 16 15 12 -1 21 -7 20 -13 -3 -12 42 -12 54 0 3 4 11
7 17 7 6 0 4 -5 -4 -10 -10 -6 -11 -10 -3 -10 7 0 12 -3 12 -8 -3 -20 2 -32
13 -26 6 4 8 3 5 -4 -8 -12 2 -44 12 -38 4 3 8 -7 9 -22 1 -14 7 -31 12 -36 6
-6 10 -18 10 -28 0 -10 5 -18 11 -18 5 0 8 -4 4 -9 -3 -5 0 -13 6 -16 5 -4 8
-14 5 -22 -3 -8 -1 -11 4 -8 6 3 10 0 10 -7 0 -17 56 -41 89 -39 31 2 76 9 76
11 0 1 17 6 47 13 7 1 19 6 25 10 9 6 11 3 6 -9 -4 -11 -3 -15 5 -10 6 3 13 2
17 -4 3 -5 11 -10 16 -10 5 0 2 11 -6 24 -16 23 -15 24 5 19 11 -3 19 -12 18
-21 -2 -8 2 -17 8 -19 13 -4 15 28 2 44 -7 9 -1 11 22 8 22 -3 29 -1 23 8 -5
8 -2 8 9 -1 13 -10 17 -10 22 3 7 19 22 16 64 -13 17 -13 32 -19 32 -15 -1 12
-30 48 -38 46 -4 -1 -9 0 -11 3 -2 2 6 1 19 -1 17 -3 20 -1 15 13 -5 14 -4 15
6 4 16 -15 33 -16 24 -2 -4 6 -1 9 7 8 7 -2 12 3 10 10 -1 8 2 11 7 7 16 -9
28 26 26 78 -2 26 2 47 7 47 5 0 6 5 3 10 -4 6 -11 7 -17 4 -7 -4 -8 -2 -4 5
4 6 12 8 18 5 6 -4 9 -1 6 7 -3 8 -10 15 -16 15 -24 3 -26 4 -14 16 15 15 16
31 0 22 -7 -4 -8 -3 -4 4 4 6 12 9 20 6 7 -3 13 2 13 11 0 11 -6 14 -21 9 -17
-4 -18 -3 -6 5 8 6 10 11 4 11 -11 0 -13 6 -17 59 -1 22 3 36 12 39 9 3 11 -2
7 -19 l-6 -24 11 23 c7 12 18 22 26 22 8 0 11 4 8 10 -4 6 1 7 11 3 12 -5 15
-3 9 6 -6 10 -3 11 13 2 27 -14 27 -14 29 10 1 16 -1 18 -11 10 -9 -8 -13 -7
-13 4 0 7 5 13 11 12 6 -1 10 3 9 10 -2 8 4 10 14 6 12 -5 14 -3 8 7 -6 9 -4
11 5 5 9 -6 12 -4 8 7 -4 8 -1 15 7 15 8 0 11 -7 7 -16 -5 -14 -3 -14 10 -3
13 10 22 11 37 2 13 -7 21 -7 21 -1 0 13 -35 32 -44 24 -3 -3 -6 -1 -6 5 0 6
5 14 10 17 6 3 10 1 10 -4 0 -6 7 -11 15 -11 8 0 16 -6 17 -12 0 -7 2 -20 3
-28 1 -8 -4 -21 -9 -29 -9 -12 -7 -13 7 -8 14 5 18 3 15 -10 -2 -9 -9 -18 -16
-21 -7 -2 -11 2 -10 8 2 7 -3 14 -10 16 -7 1 -8 0 -3 -2 5 -3 -1 -15 -12 -28
-17 -17 -26 -20 -36 -12 -12 9 -13 8 -6 -3 6 -10 4 -12 -5 -6 -9 6 -11 4 -5
-5 6 -9 4 -11 -5 -5 -9 6 -11 4 -5 -5 6 -9 4 -11 -5 -5 -8 5 -11 4 -6 -3 4 -7
-4 -9 -24 -6 -17 3 -30 1 -30 -5 0 -6 8 -8 18 -5 10 4 13 2 7 -3 -21 -18 -16
-40 10 -40 14 0 25 4 25 9 0 5 5 6 10 3 6 -4 7 -11 4 -17 -4 -7 -2 -8 5 -4 7
5 9 12 3 19 -13 16 -11 48 2 44 6 -2 10 -12 8 -21 -2 -13 2 -11 21 6 24 24 27
39 4 20 -14 -12 -27 -6 -27 11 0 6 3 8 6 4 4 -3 19 0 34 8 15 8 30 11 34 8 3
-4 6 -1 6 5 0 7 5 12 11 12 6 0 9 -6 6 -14 -3 -8 -1 -16 4 -18 12 -4 17 -28
18 -82 1 -22 4 -36 8 -33 8 9 10 117 2 117 -4 0 -9 11 -11 25 -4 17 -1 25 8
25 8 0 14 4 14 10 0 5 -6 8 -12 6 -7 -1 -9 -1 -5 2 4 2 3 10 -4 18 -9 11 -8
15 6 20 13 5 14 9 3 15 -9 6 -10 9 -1 9 7 0 10 7 7 18 -4 13 -3 14 4 4 5 -8
12 -13 16 -13 19 3 26 0 26 -11 0 -6 -3 -8 -7 -5 -9 9 -34 -13 -27 -24 3 -5
-3 -6 -12 -2 -15 6 -15 4 2 -13 12 -13 22 -16 26 -10 4 6 8 7 8 2 0 -4 11 -1
25 8 14 9 25 12 25 6 0 -5 5 -10 11 -10 5 0 8 4 5 9 -3 5 2 15 11 22 14 12 15
11 8 -10 -6 -19 -4 -23 8 -18 9 3 26 -2 39 -12 31 -25 72 -45 64 -33 -3 5 1
12 9 16 8 3 17 1 20 -4 4 -6 1 -10 -5 -10 -6 0 -8 -5 -5 -10 3 -6 15 -10 26
-10 11 0 17 -5 14 -10 -3 -6 -1 -10 4 -10 18 0 12 20 -8 28 -24 9 -27 22 -9
34 15 10 -25 5 -55 -7 -14 -6 -16 -3 -11 11 5 16 4 16 -5 4 -7 -11 -13 -12
-21 -4 -8 8 -6 13 9 17 12 3 24 1 27 -4 3 -5 10 -9 16 -9 6 0 5 7 -3 18 -11
14 -11 15 1 5 11 -10 17 -10 29 1 9 8 21 15 26 15 6 1 10 6 10 11 0 6 6 15 14
19 7 5 11 13 7 19 -4 7 2 9 17 6 16 -2 24 1 24 11 0 11 -7 14 -21 9 -17 -4
-18 -3 -6 5 8 6 24 8 35 5 20 -5 20 -5 1 10 -19 15 -11 22 18 17 5 -1 6 5 2
14 -3 9 -2 13 4 10 6 -3 10 -1 10 4 0 6 -4 11 -10 11 -5 0 -10 5 -10 11 0 5 5
7 10 4 6 -3 10 3 10 14 0 12 4 21 10 21 5 0 8 6 6 13 -1 6 -1 9 1 5 9 -16 22
-7 18 12 -2 11 0 20 6 20 5 0 9 -5 9 -11 0 -5 5 -7 10 -4 6 4 7 12 1 22 -9 16
-4 52 8 54 3 0 14 2 24 4 9 2 22 -5 27 -16 6 -10 8 -19 4 -19 -3 0 -1 -7 6
-15 7 -8 10 -16 6 -16 -3 -1 -10 -2 -15 -3 -18 -2 -24 -16 -8 -16 10 0 17 -4
17 -10 0 -5 -3 -9 -7 -9 -5 1 -11 0 -15 -1 -13 -4 -27 -7 -39 -9 -5 0 -8 -5
-4 -11 3 -5 12 -7 20 -3 8 3 15 0 15 -6 0 -6 -3 -10 -7 -9 -11 3 -53 -25 -53
-34 0 -11 23 -5 32 7 5 6 8 6 8 -1 0 -6 -7 -17 -15 -24 -8 -7 -12 -17 -8 -23
3 -6 1 -7 -5 -3 -7 4 -9 -3 -6 -21 3 -20 2 -24 -5 -13 -5 8 -7 18 -5 22 3 4 0
8 -6 8 -7 0 -9 -9 -5 -22 5 -19 4 -20 -5 -8 -10 13 -11 12 -6 -3 4 -12 2 -16
-6 -11 -6 4 -8 3 -5 -3 4 -6 0 -16 -8 -23 -10 -9 -15 -9 -15 -1 0 6 5 11 12
11 16 0 1 13 -18 16 -11 2 -14 -3 -9 -14 19 -48 7 -75 -35 -80 -14 -1 -31 -3
-37 -4 -18 -2 -16 -15 2 -22 8 -3 19 3 25 12 9 14 10 13 4 -7 -4 -17 -3 -22 7
-19 8 3 13 12 11 20 -1 8 5 15 13 15 18 0 18 -2 4 -30 -9 -18 -9 -20 1 -10 7
6 19 9 26 6 8 -3 14 0 14 7 0 6 -4 8 -10 5 -5 -3 -10 0 -10 8 0 21 44 38 61
24 11 -10 11 -9 1 4 -6 9 -9 19 -5 22 3 4 0 13 -6 21 -7 8 -8 17 -3 20 6 3 12
-1 16 -9 3 -8 13 -14 23 -14 17 1 17 2 0 6 -9 2 -15 9 -12 14 4 5 1 9 -5 9 -6
0 -8 5 -5 10 4 6 10 8 15 5 5 -3 12 0 16 6 4 8 3 9 -4 5 -7 -4 -12 -2 -12 3 0
6 6 11 14 11 8 0 18 5 22 11 4 8 -1 9 -17 4 -21 -7 -22 -6 -10 8 7 9 17 14 22
11 5 -3 9 0 9 6 0 6 5 8 10 5 9 -6 14 8 11 27 0 5 5 8 12 8 6 0 4 5 -5 11 -10
5 -18 15 -18 21 0 7 6 6 15 -2 9 -7 18 -10 22 -7 3 4 -2 9 -11 13 -9 3 -13 10
-10 16 3 5 11 4 20 -3 11 -9 14 -9 14 0 0 7 4 10 8 7 5 -3 9 1 9 9 0 8 -9 17
-19 21 -10 3 -16 10 -13 15 4 5 16 2 29 -6 19 -13 23 -13 23 -1 0 8 -6 12 -12
10 -16 -7 -39 22 -25 31 5 3 10 2 10 -4 0 -5 9 -9 20 -8 18 1 18 12 -1 12 -5
0 -8 5 -7 10 2 6 6 9 9 8 3 -1 6 5 6 13 0 19 -6 18 -28 -8 -18 -22 -19 -22
-17 -3 2 11 8 24 13 28 6 5 3 7 -6 4 -11 -4 -21 4 -30 21 -8 15 -18 30 -24 34
-6 5 -4 8 5 8 13 0 13 1 0 10 -12 8 -13 13 -3 28 10 16 9 19 -5 18 -10 0 -16
6 -16 16 1 10 -4 14 -12 11 -8 -3 -17 2 -20 11 -3 9 -10 13 -15 10 -5 -3 -12
2 -15 10 -3 9 -11 13 -18 9 -6 -4 -4 2 4 12 12 15 12 17 1 10 -11 -6 -13 -4
-7 10 5 15 4 16 -9 5 -10 -8 -15 -9 -15 -1 0 6 -5 11 -11 11 -5 0 -7 -6 -3
-12 4 -7 -2 -5 -14 6 -19 16 -22 36 -6 36 3 0 3 -4 -1 -9 -3 -5 0 -13 6 -16 7
-5 10 0 7 11 -2 11 -12 19 -23 19 -28 0 -75 34 -74 54 0 13 2 12 8 -3 5 -13
10 -16 14 -9 4 6 0 19 -9 27 -9 9 -11 16 -4 16 6 0 9 4 6 9 -6 9 22 26 37 23
9 -2 9 12 0 21 -3 4 -16 -1 -27 -10 -15 -14 -18 -14 -8 -2 6 9 9 19 5 22 -3 4
-1 13 6 21 9 11 9 15 -1 19 -8 4 -5 8 10 12 26 8 28 18 7 35 -11 9 -12 17 -5
30 7 13 7 21 -1 25 -7 5 -5 13 5 24 13 14 13 20 3 31 -9 10 -9 11 1 6 6 -4 12
-2 12 4 0 6 4 9 9 5 5 -3 17 3 27 12 16 16 16 16 9 -7 -7 -22 -6 -23 8 -11 9
7 14 18 10 25 -4 6 2 4 12 -4 17 -14 18 -13 13 2 -4 10 -1 19 10 23 9 3 18 1
20 -4 2 -6 9 -8 15 -4 7 4 6 -1 -2 -10 -7 -9 -9 -17 -3 -17 5 0 15 6 21 14 10
11 8 17 -6 26 -15 10 -15 11 -1 6 9 -3 19 -2 21 2 2 4 3 2 1 -4 -1 -6 10 -11
26 -11 17 0 27 5 26 13 -3 18 -16 30 -16 15 0 -7 -4 -9 -10 -6 -15 9 -12 24 4
21 8 -1 22 -8 31 -16 27 -22 51 -22 52 1 2 17 -1 18 -13 8 -12 -10 -18 -9 -31
3 -14 15 -14 16 3 15 11 -1 18 4 16 11 -1 8 2 11 9 6 8 -5 10 -2 6 9 -4 11 -1
15 14 12 12 -2 19 2 19 11 0 8 -4 13 -8 10 -12 -7 -11 26 1 41 6 9 6 13 -1 13
-5 0 -13 7 -16 16 -4 10 -2 13 6 8 8 -5 9 -2 5 10 -4 10 -7 20 -7 22 0 3 -5 2
-12 -2 -6 -4 -8 -3 -4 4 3 6 2 14 -4 17 -6 4 -8 16 -4 27 4 12 2 18 -4 15 -5
-4 -8 4 -7 17 2 14 -3 36 -10 50 -11 21 -11 27 3 38 10 8 13 9 9 1 -4 -6 -3
-14 2 -18 5 -3 8 -14 6 -25 -2 -11 1 -22 6 -25 5 -4 6 -11 3 -17 -9 -14 17
-28 35 -19 9 5 24 7 34 6 9 -2 15 0 12 4 -2 5 -20 7 -39 6 -25 -1 -33 3 -31
14 1 8 7 17 14 19 8 3 5 9 -9 19 -14 10 -18 19 -12 26 11 14 12 48 1 41 -4 -2
-10 2 -12 8 -4 9 -6 10 -6 1 -1 -6 4 -15 9 -18 6 -3 10 -11 10 -17 0 -6 -9 -3
-19 6 -11 10 -17 25 -15 34 4 13 3 12 -6 -2 -10 -14 -10 -20 0 -26 8 -5 6 -9
-6 -14 -10 -4 -15 -4 -12 0 4 4 3 16 -3 27 -8 14 -8 18 0 13 6 -4 11 -2 11 3
0 6 -4 11 -10 11 -5 0 -6 7 -3 17 5 11 3 14 -6 8 -10 -5 -11 -2 -6 14 4 12 2
21 -4 21 -6 0 -11 9 -11 19 0 10 -14 33 -30 51 -30 32 -32 33 -93 26 -73 -8
-123 -15 -154 -21 -14 -4 -23 -1 -24 7 0 7 -4 4 -9 -7 -5 -11 -9 -14 -9 -7 -1
9 -6 10 -20 3 -20 -11 -48 8 -33 24 4 5 2 5 -4 2 -6 -4 -20 3 -30 15 -11 12
-13 18 -6 14 6 -4 12 -3 12 2 0 5 -10 14 -22 21 -13 6 -15 9 -6 7 10 -3 20 0
24 6 4 7 3 8 -4 4 -15 -9 -100 79 -94 98 2 4 -4 6 -13 2 -10 -3 -13 -2 -10 4
4 6 14 9 22 8 9 -2 18 2 20 8 2 6 -7 11 -19 11 -43 1 -47 3 -41 20 5 12 3 14
-7 8 -8 -5 -11 -4 -6 3 4 6 12 9 19 6 7 -2 13 4 14 16 1 12 -3 18 -8 14 -6 -3
-5 3 3 15 7 12 15 16 16 11 2 -6 10 -3 18 7 18 24 18 38 -1 23 -9 -7 -18 -10
-22 -6 -3 3 -1 6 6 6 7 0 9 5 5 12 -4 6 -3 8 4 4 6 -3 13 -2 17 4 3 5 0 10 -7
10 -10 0 -9 3 2 10 8 5 15 22 15 38 0 16 7 37 14 46 7 9 10 16 7 16 -4 0 -3 8
3 17 6 12 5 26 -4 44 -8 15 -11 29 -8 33 4 3 -1 6 -10 6 -10 0 -17 5 -17 10 0
6 -7 10 -15 10 -8 0 -15 5 -15 10 0 6 -7 10 -15 10 -7 0 -18 8 -24 18 -5 9
-11 15 -13 13 -6 -7 -48 10 -48 20 0 5 -9 9 -20 9 -11 0 -20 5 -20 10 0 6 -7
10 -15 10 -8 0 -15 5 -15 11 0 5 -4 8 -9 4 -6 -3 -14 2 -19 11 -5 9 -11 14
-14 12 -6 -4 -78 33 -96 50 -7 6 -31 12 -52 12 -31 0 -45 -7 -70 -32 -16 -18
-33 -41 -36 -51 -3 -9 -10 -15 -15 -12 -5 4 -9 0 -9 -7 0 -7 -10 -25 -23 -40
-12 -15 -35 -45 -51 -67 -30 -41 -49 -44 -113 -20 -15 6 -23 5 -23 -2 0 -8 -4
-8 -14 0 -8 7 -33 13 -55 14 -23 1 -41 5 -41 8 0 3 -22 5 -49 4 -29 -1 -47 3
-44 8 3 5 -1 13 -8 18 -10 6 -11 9 -1 9 6 0 12 5 12 11 0 5 -4 7 -10 4 -5 -3
-10 -1 -10 5 0 7 8 9 21 5 13 -5 19 -3 15 3 -8 13 27 22 45 12 8 -5 21 -3 30
3 18 13 17 12 26 45 3 13 11 21 18 18 8 -3 16 2 19 11 4 9 13 13 22 9 10 -4
13 -2 8 6 -5 8 -2 9 11 4 16 -6 16 -4 4 11 -12 14 -12 16 1 8 19 -12 81 -15
74 -4 -10 16 8 32 18 18 8 -11 9 -11 5 1 -2 8 -9 15 -15 15 -21 0 -23 13 -3
20 12 3 21 10 21 15 0 5 8 6 17 3 15 -6 16 -5 3 9 -11 11 -17 12 -22 4 -5 -6
-8 -3 -8 10 0 17 5 21 25 19 14 -2 23 1 20 6 -3 5 -1 18 6 30 9 17 8 20 -3 14
-7 -3 -5 0 5 8 9 8 17 25 18 38 0 22 1 22 8 5 7 -19 8 -19 13 2 4 12 2 22 -3
22 -5 0 -9 4 -9 10 0 5 8 7 18 3 14 -5 13 -3 -3 10 -11 9 -16 17 -11 17 5 0 2
8 -5 18 -13 15 -12 16 3 3 10 -7 15 -18 11 -25 -3 -6 -2 -7 3 -3 5 5 9 12 9
15 0 4 5 14 10 22 5 8 10 34 10 56 1 41 0 41 -21 27 -17 -11 -24 -11 -30 -2
-4 7 -3 9 2 6 6 -3 16 -1 24 4 12 8 12 12 3 16 -7 2 -13 10 -13 16 0 8 4 7 12
-1 22 -22 27 -13 11 19 -10 19 -20 28 -30 25 -8 -4 -11 -1 -8 5 4 6 13 8 21 5
8 -3 14 -1 14 4 0 6 -4 10 -10 10 -5 0 -10 5 -10 11 0 5 4 8 8 5 5 -3 9 1 9 9
0 8 -4 12 -9 9 -4 -3 -8 -1 -8 5 0 5 6 12 13 14 10 4 10 6 0 6 -7 1 -13 6 -13
12 0 5 5 7 12 3 7 -4 8 -3 4 5 -10 15 -29 3 -22 -15 3 -8 1 -14 -4 -14 -6 0
-10 9 -10 21 0 11 -4 17 -10 14 -16 -10 -11 1 7 16 15 12 16 12 8 -1 -8 -13
-7 -13 8 -1 18 14 23 26 8 16 -5 -3 -12 -1 -16 5 -4 6 -11 8 -16 4 -6 -3 -9 2
-7 11 2 11 -4 19 -14 20 -10 2 -25 10 -34 19 -19 19 -28 21 -18 4 4 -7 -2 -4
-13 7 -11 11 -18 24 -15 29 3 5 0 6 -6 3 -5 -4 -29 3 -52 15 -23 12 -36 24
-30 26 7 3 4 9 -7 17 -22 15 -24 99 -3 118 10 9 11 9 6 0 -4 -7 -2 -13 4 -13
6 0 8 -5 5 -10 -4 -6 -12 -7 -18 -4 -7 4 -8 3 -4 -1 4 -5 14 -10 22 -11 13 -2
14 14 0 47 -3 9 1 21 10 29 14 12 14 15 -1 31 -10 11 -13 19 -8 19 6 0 10 9
11 20 1 11 -3 20 -8 20 -6 0 -7 -4 -4 -10 3 -5 2 -10 -4 -10 -5 0 -16 -3 -24
-6 -10 -3 -14 2 -13 17 0 12 8 25 16 27 13 5 13 3 0 -14 -14 -17 -14 -18 2 -6
9 8 14 20 11 28 -4 11 -9 12 -16 5 -20 -20 -30 -11 -12 9 10 11 13 20 7 20 -7
0 -12 -4 -12 -10 0 -5 -4 -10 -10 -10 -5 0 -10 7 -10 15 0 8 4 15 9 15 6 0 9
9 8 19 0 11 -5 17 -9 15 -4 -3 -8 2 -8 11 0 11 5 15 15 11 13 -4 14 -2 5 14
-6 11 -18 20 -28 19 -14 0 -14 -2 3 -10 19 -9 18 -9 -2 -5 -24 4 -32 -9 -11
-16 8 -3 7 -6 -3 -10 -9 -3 -16 -1 -16 5 0 7 -3 19 -5 27 -3 8 -3 12 -1 7 3
-4 9 -4 14 -1 6 4 6 11 -1 19 -7 9 -6 16 7 26 15 13 16 12 11 -8 -5 -20 -4
-21 13 -12 10 5 19 12 19 15 0 3 -4 3 -9 0 -5 -3 -11 1 -14 9 -6 14 -67 51
-67 40 0 -3 -6 0 -14 7 -8 7 -11 17 -8 22 3 5 0 6 -7 1 -16 -9 25 -56 43 -49
7 3 13 -2 13 -11 0 -16 -27 -17 -39 0 -5 6 -12 5 -20 -3 -6 -6 -15 -12 -18
-12 -9 0 -9 33 0 45 4 6 6 18 5 27 -2 10 5 20 16 23 10 4 19 11 19 16 0 6 -4
7 -10 4 -5 -3 -10 -1 -10 4 0 6 6 11 13 11 8 0 8 3 2 8 -6 4 -10 13 -9 20 1 6
2 17 3 23 0 5 5 8 10 5 11 -7 5 88 -8 112 -6 11 -7 23 -3 27 4 3 3 6 -3 5 -5
-1 -13 -1 -17 0 -15 5 -28 8 -43 9 -8 0 -14 4 -14 9 4 23 -4 32 -26 32 -14 0
-25 4 -25 9 0 5 -8 8 -17 6 -10 -1 -17 -9 -17 -17 1 -8 -5 -15 -12 -15 -7 0
-11 4 -8 9 3 4 -2 5 -10 2 -9 -3 -14 -11 -13 -17 1 -7 -5 -12 -13 -12 -8 0
-14 6 -12 14 3 12 0 12 -12 2 -11 -9 -20 -10 -33 -2 -10 6 -14 11 -9 11 5 0 3
7 -4 15 -15 18 -55 21 -44 3 4 -7 3 -8 -5 -4 -9 6 -9 11 1 24 8 10 9 13 1 9
-6 -4 -18 -2 -25 5 -33 31 -59 40 -76 26 -13 -11 -15 -11 -10 2 4 12 -3 15
-29 15 -19 0 -38 -4 -42 -8z m42 -17 c4 0 5 6 1 13 -4 6 1 4 12 -5 15 -13 23
-15 32 -6 8 8 15 8 26 -2 9 -7 14 -16 11 -20 -3 -5 5 -10 17 -13 13 -2 7 -4
-13 -4 -20 0 -41 -3 -47 -7 -8 -4 -10 -2 -6 8 6 14 -18 17 -32 3 -4 -3 -15 -2
-25 4 -13 6 -19 6 -19 -1 0 -5 -7 -10 -15 -10 -8 0 -15 -4 -15 -10 0 -5 -4
-10 -10 -10 -18 0 -10 19 11 25 20 7 20 7 2 21 -13 11 -14 13 -2 9 9 -3 22 1
29 10 9 11 16 13 24 5 5 -5 14 -10 19 -10z m-103 -51 c0 -5 -4 -9 -10 -9 -5 0
-10 5 -10 12 0 6 -7 3 -15 -8 -11 -13 -14 -14 -13 -4 2 8 7 18 12 22 11 8 36
-1 36 -13z m467 -26 c5 3 15 1 23 -5 12 -8 12 -9 -2 -4 -10 3 -18 1 -18 -3 0
-5 -8 -8 -17 -7 -10 2 -18 7 -18 12 0 5 -4 16 -9 24 -6 10 -2 8 12 -3 11 -11
25 -17 29 -14z m-187 7 c-8 -5 -10 -10 -4 -10 5 0 19 -7 30 -15 15 -12 11 -12
-18 1 -37 17 -42 34 -10 34 15 0 15 -2 2 -10z m-619 -23 c-6 -8 -7 -18 -3 -22
4 -5 1 -4 -7 0 -11 6 -13 4 -7 -11 5 -14 4 -16 -4 -8 -9 9 -8 17 2 33 7 11 17
21 22 21 4 0 3 -6 -3 -13z m29 -12 c-7 -9 -15 -13 -17 -11 -6 6 20 36 26 30 2
-2 -2 -10 -9 -19z m647 -7 c-3 -8 -6 -5 -6 6 -1 11 2 17 5 13 3 -3 4 -12 1
-19z m-807 2 c0 -5 -2 -10 -4 -10 -3 0 -8 5 -11 10 -3 6 -1 10 4 10 6 0 11 -4
11 -10z m69 -16 c-6 -8 -15 -12 -18 -8 -3 4 0 9 7 11 6 3 9 10 6 15 -4 7 -2 8
5 4 9 -6 9 -11 0 -22z m891 16 c0 -5 -5 -10 -11 -10 -5 0 -7 5 -4 10 3 6 8 10
11 10 2 0 4 -4 4 -10z m32 -14 c7 4 8 2 4 -5 -9 -13 -26 -5 -25 12 0 9 2 8 6
-1 2 -6 10 -9 15 -6z m-1002 -6 c8 -5 11 -10 5 -10 -5 0 -17 5 -25 10 -8 5
-10 10 -5 10 6 0 17 -5 25 -10z m1046 -7 c4 -10 9 -22 10 -28 1 -5 3 -12 4
-15 7 -20 7 -40 -2 -40 -5 0 -8 6 -5 13 2 6 -3 21 -12 31 -11 13 -11 17 -2 11
9 -5 12 -3 9 6 -3 8 -14 13 -24 12 -10 -1 -13 0 -6 3 6 3 10 10 6 15 -3 5 -1
9 4 9 6 0 13 -8 18 -17z m-1101 -11 c-3 -3 -11 0 -18 7 -9 10 -8 11 6 5 10 -3
15 -9 12 -12z m16 -15 c-10 -9 -11 -8 -5 6 3 10 9 15 12 12 3 -3 0 -11 -7 -18z
m21 -19 c-8 -8 -9 -4 -5 13 4 13 8 18 11 10 2 -7 -1 -18 -6 -23z m68 27 c0 -2
-10 -9 -22 -15 -22 -11 -22 -10 -4 4 21 17 26 19 26 11z m-586 -68 c3 3 6 1 6
-6 0 -9 9 -12 25 -9 21 4 23 3 14 -14 -7 -12 -6 -24 0 -36 8 -13 11 -14 11 -2
1 11 4 10 13 -5 7 -11 19 -21 27 -23 11 -2 11 1 -2 11 -10 8 -18 17 -18 20 0
12 54 1 56 -11 1 -7 0 -8 -3 -2 -8 17 -19 11 -19 -9 0 -11 3 -18 6 -16 13 8
59 13 59 7 -3 -20 3 -23 19 -11 15 13 16 12 3 -4 -8 -9 -16 -15 -19 -12 -3 3
-11 0 -19 -6 -9 -9 -13 -8 -13 0 0 6 5 11 11 11 5 0 7 5 3 12 -6 9 -9 9 -12 0
-5 -15 -38 -16 -47 -2 -4 6 -11 8 -16 5 -5 -4 -12 1 -15 9 -3 9 -9 14 -13 11
-10 -6 -51 23 -51 36 0 6 4 8 9 4 5 -3 13 -1 16 5 4 6 3 9 -2 8 -4 -1 -18 4
-31 11 -22 12 -23 11 -12 -9 13 -23 -1 -52 -14 -31 -4 6 -1 11 6 11 10 0 10 2
-1 9 -8 5 -15 19 -16 30 -1 16 2 18 15 11 10 -5 20 -6 24 -3z m-181 -52 c-3
-9 -8 -14 -10 -11 -3 3 -2 9 2 15 9 16 15 13 8 -4z m1799 -170 c11 0 22 -15
10 -15 -19 0 -42 12 -42 22 0 5 6 6 13 1 6 -4 15 -8 19 -8z m70 -114 c-5 -3
-12 -13 -16 -21 -3 -8 -4 -2 0 14 5 27 4 28 -13 15 -16 -13 -17 -13 -4 4 11
13 17 15 28 6 8 -7 10 -15 5 -18z m54 -120 c-9 -15 5 -42 18 -34 6 3 0 -6 -13
-20 -14 -15 -27 -24 -30 -21 -3 3 -1 8 4 12 16 11 14 40 -2 47 -11 4 -13 1 -9
-12 6 -14 4 -15 -5 -6 -13 13 -3 37 12 28 5 -4 9 -1 9 4 0 6 5 11 11 11 5 0 8
-4 5 -9z m-41 -151 c3 -5 1 -10 -4 -10 -6 0 -11 5 -11 10 0 6 2 10 4 10 3 0 8
-4 11 -10z m183 -205 c-3 -3 -9 2 -12 12 -6 14 -5 15 5 6 7 -7 10 -15 7 -18z
m35 10 c-3 -9 -8 -14 -10 -11 -3 3 -2 9 2 15 9 16 15 13 8 -4z m-2373 -179 c0
-2 -7 -7 -16 -10 -8 -3 -12 -2 -9 4 6 10 25 14 25 6z m2430 0 c0 -2 -7 -7 -16
-10 -8 -3 -12 -2 -9 4 6 10 25 14 25 6z m6 -115 c12 10 12 6 5 -30 -1 -2 -7 2
-14 8 -8 6 -16 9 -19 6 -2 -3 -5 2 -5 10 0 11 4 12 10 6 7 -7 15 -7 23 0z
m-2476 -29 c0 -13 -12 -22 -22 -16 -10 6 -1 24 13 24 5 0 9 -4 9 -8z m24 -18
c3 -8 2 -12 -4 -9 -6 3 -10 10 -10 16 0 14 7 11 14 -7z m1477 -15 c-12 -10
-31 -16 -42 -14 -12 3 -17 0 -13 -7 4 -7 2 -8 -5 -4 -17 11 -4 25 20 21 11 -2
22 2 25 9 3 7 12 13 21 13 13 0 11 -4 -6 -18z m936 -4 c0 -8 -4 -12 -9 -9 -5
3 -6 10 -3 15 9 13 12 11 12 -6z m-1384 -19 c15 0 30 -3 33 -8 3 -4 10 -5 16
-2 6 4 5 -3 -2 -16 -6 -12 -9 -24 -6 -28 3 -3 6 0 6 5 0 6 11 10 25 9 13 -2
22 1 19 6 -3 5 -13 7 -21 4 -8 -3 -11 -1 -8 4 10 15 23 12 47 -12 18 -18 20
-18 15 -3 -6 15 -5 16 8 5 8 -7 15 -9 15 -5 0 4 7 2 15 -5 13 -11 14 -10 9 4
-7 19 12 22 20 4 3 -7 4 -5 3 6 -2 22 27 30 46 12 13 -13 92 -22 84 -9 -3 4 1
14 9 21 9 8 14 9 14 2 0 -11 37 -9 57 3 7 4 17 0 23 -10 11 -17 11 -17 6 0 -3
9 -4 17 -2 17 3 0 13 3 23 7 16 6 17 5 3 -12 -8 -10 -10 -16 -4 -12 15 9 21
-8 19 -58 -3 -81 -17 -125 -48 -151 -31 -26 -51 -27 -53 -3 -1 24 -35 92 -42
84 -4 -4 -7 -31 -8 -60 0 -63 -10 -78 -66 -94 -47 -14 -39 -19 -98 63 -29 40
-110 91 -178 111 -51 15 -115 62 -106 76 3 5 21 16 40 24 22 9 33 19 29 26 -5
8 -2 8 11 2 11 -5 32 -8 47 -7z m-1043 -6 c0 -5 -2 -10 -4 -10 -3 0 -8 5 -11
10 -3 6 -1 10 4 10 6 0 11 -4 11 -10z m1228 -5 c-2 -1 -14 -8 -28 -15 l-25
-13 20 20 c11 11 24 18 28 16 5 -3 7 -6 5 -8z m-1186 -40 c3 -13 1 -22 -3 -19
-9 5 -13 44 -5 44 2 0 6 -11 8 -25z m1664 16 c6 -1 9 -12 6 -26 -5 -29 16 -87
29 -79 5 3 9 -2 9 -11 0 -11 -5 -15 -16 -11 -10 4 -13 2 -8 -6 5 -8 2 -9 -9
-5 -10 3 -17 2 -17 -4 0 -6 -4 -8 -9 -4 -5 3 -12 1 -16 -5 -4 -6 -11 -8 -16
-5 -5 4 -9 2 -9 -2 0 -5 -9 -9 -20 -9 -13 0 -21 9 -25 26 -7 38 1 108 15 125
14 16 35 21 25 5 -3 -6 1 -7 9 -4 9 3 14 10 11 14 -3 5 3 7 12 5 10 -2 23 -4
29 -4z m-1621 -11 c3 -5 1 -10 -4 -10 -6 0 -11 5 -11 10 0 6 2 10 4 10 3 0 8
-4 11 -10z m-24 -47 c-12 -20 -14 -14 -5 12 4 9 9 14 11 11 3 -2 0 -13 -6 -23z
m49 -35 c0 -12 -10 -9 -26 6 -20 21 -17 28 6 14 11 -7 20 -16 20 -20z m20 24
c0 -5 10 -14 23 -20 12 -6 17 -11 11 -11 -7 -1 -22 8 -35 19 -13 10 -18 19
-11 20 6 0 12 -4 12 -8z m-60 -32 c-8 -5 -19 -10 -25 -10 -5 0 -3 5 5 10 8 5
20 10 25 10 6 0 3 -5 -5 -10z m50 -21 c-13 -8 -11 -12 8 -28 24 -21 29 -41 10
-41 -6 0 -8 3 -5 7 4 3 -3 17 -14 29 -18 20 -20 26 -9 39 7 8 15 13 19 10 3
-3 -1 -10 -9 -16z m36 -26 c-3 -4 -6 -1 -6 6 0 7 -4 9 -10 6 -6 -4 -7 1 -3 11
6 15 7 15 15 -1 6 -9 7 -19 4 -22z m2198 -4 c-8 -14 -41 -16 -41 -2 0 8 7 11
19 7 14 -4 17 -1 12 13 -5 14 -4 15 4 3 6 -8 9 -17 6 -21z m-2157 5 c-3 -3
-12 -4 -19 -1 -8 3 -5 6 6 6 11 1 17 -2 13 -5z m45 -32 c-3 -10 -1 -13 6 -8 7
4 15 0 19 -9 3 -10 0 -21 -7 -25 -10 -6 -9 -9 1 -14 8 -3 3 -3 -10 0 -13 4
-21 2 -18 -3 4 -5 -1 -10 -10 -10 -12 0 -9 6 10 22 28 22 35 37 15 33 -6 -2
-13 10 -14 27 -2 20 0 25 5 16 5 -8 7 -21 3 -29z m33 20 c-3 -3 -11 0 -18 7
-9 10 -8 11 6 5 10 -3 15 -9 12 -12z m-63 -19 c-10 -19 -52 -29 -52 -13 0 5 9
7 21 5 15 -3 19 0 15 11 -3 9 -1 12 4 9 6 -3 10 -1 10 6 0 7 3 10 6 7 3 -4 1
-15 -4 -25z m135 -3 c-1 -11 -5 -20 -9 -20 -3 0 -6 9 -5 20 1 11 5 20 9 20 3
0 6 -9 5 -20z m-29 -15 c-3 -3 -9 2 -12 12 -6 14 -5 15 5 6 7 -7 10 -15 7 -18z
m1995 -5 c-3 -12 -8 -19 -11 -16 -5 6 5 36 12 36 2 0 2 -9 -1 -20z m-2015 -15
c-3 -3 -9 2 -12 12 -6 14 -5 15 5 6 7 -7 10 -15 7 -18z m2035 10 c-3 -9 -8
-14 -10 -11 -3 3 -2 9 2 15 9 16 15 13 8 -4z m-912 -172 c0 -10 3 -30 5 -45 2
-16 6 -40 8 -55 2 -16 5 -28 6 -28 1 0 3 -13 4 -30 2 -34 -9 -53 -39 -66 -37
-18 -70 -39 -60 -39 6 0 -3 -7 -19 -15 -15 -8 -32 -13 -36 -10 -18 11 -32 78
-26 118 10 62 70 163 104 175 40 15 52 14 53 -5z m661 -501 c-6 -2 -12 -11
-12 -20 0 -12 6 -10 27 9 15 13 22 17 16 9 -8 -10 -9 -21 -3 -30 6 -8 10 -12
11 -7 1 4 3 12 4 17 1 6 3 16 4 23 1 7 4 8 9 2 4 -5 18 -10 32 -10 19 -1 24
-5 22 -20 -3 -15 -1 -17 11 -7 7 6 17 9 20 5 4 -3 7 0 7 7 0 11 3 11 12 2 9
-9 9 -15 -1 -24 -11 -11 -12 -10 -6 2 7 12 6 13 -7 3 -8 -7 -19 -9 -23 -5 -5
4 -5 1 -1 -5 4 -7 2 -13 -3 -13 -6 0 -11 6 -11 13 0 8 -4 7 -10 -3 -8 -12 -10
-9 -8 10 2 17 -2 25 -12 25 -8 0 -14 -6 -12 -13 1 -8 -2 -11 -9 -6 -8 5 -9 3
-4 -6 6 -9 4 -11 -5 -5 -9 6 -11 4 -5 -5 5 -7 4 -11 -1 -8 -5 4 -10 -5 -10
-18 -1 -13 2 -24 8 -24 5 0 7 4 4 9 -3 5 1 11 9 15 8 3 17 1 20 -4 3 -4 0 -10
-7 -12 -7 -3 -5 -7 6 -11 9 -4 15 -3 12 1 -2 4 -1 14 4 22 7 12 11 9 20 -10
10 -24 10 -24 6 -2 -3 17 -1 22 9 19 7 -3 18 0 25 6 10 10 12 8 7 -6 -6 -14
-4 -16 10 -8 11 6 24 6 35 0 16 -9 17 -7 6 16 -10 23 -12 23 -25 7 -8 -9 -11
-11 -7 -3 5 10 3 12 -7 7 -8 -4 -6 -1 3 7 10 8 14 18 10 22 -4 5 0 4 8 -1 8
-4 20 -9 25 -10 6 0 16 -2 23 -2 17 -3 15 -19 -3 -19 -8 0 -12 4 -9 9 3 4 0 8
-6 8 -7 0 -10 -6 -7 -12 4 -14 25 -18 42 -9 18 10 35 10 29 0 -3 -5 2 -10 10
-10 16 -1 28 -4 44 -9 4 -1 11 -2 15 -1 5 1 6 -3 3 -8 -3 -5 8 -14 24 -21 29
-12 41 -30 20 -30 -5 0 -10 5 -10 12 0 6 -2 9 -5 6 -3 -3 -3 -13 1 -22 6 -16
8 -16 27 1 11 10 17 13 13 6 -4 -8 2 -15 19 -19 14 -3 25 -10 25 -16 0 -5 4
-7 9 -3 6 3 8 -3 6 -14 -2 -14 1 -18 11 -14 8 3 14 0 14 -7 0 -6 5 -8 13 -4 7
5 6 0 -3 -11 -9 -11 -10 -16 -2 -11 7 4 15 1 18 -9 6 -14 9 -14 16 -3 7 9 8 7
5 -10 -3 -12 -2 -20 3 -17 4 2 16 -7 26 -21 11 -14 27 -35 37 -47 10 -11 15
-27 12 -34 -2 -8 -1 -12 4 -9 8 6 35 -46 31 -60 -1 -4 3 -10 8 -13 6 -3 12
-15 14 -26 1 -11 7 -23 11 -26 5 -4 10 -18 10 -33 1 -14 4 -26 7 -26 3 0 6 -8
7 -17 2 -24 11 -87 13 -93 5 -12 4 -140 -1 -140 -3 0 -5 -10 -5 -22 1 -38 -15
-118 -22 -118 -4 0 -8 -12 -8 -26 -2 -32 -12 -43 -24 -24 -6 8 -10 11 -10 5 0
-5 -11 -11 -25 -11 -15 -1 -25 3 -25 12 0 16 -30 33 -47 27 -7 -3 -22 2 -34
10 -12 9 -29 13 -38 10 -12 -3 -11 0 4 12 20 17 20 17 -4 10 -18 -6 -22 -4
-16 6 5 8 5 11 0 7 -4 -4 -17 -3 -28 3 -14 8 -18 8 -13 0 4 -6 2 -11 -4 -11
-6 0 -8 -5 -4 -12 5 -7 -6 0 -23 16 -17 16 -30 34 -28 40 2 6 6 23 9 38 5 20
11 25 25 21 40 -10 50 79 13 120 -42 47 -144 64 -176 28 -30 -33 -28 -60 8
-97 25 -25 32 -41 28 -59 -5 -26 -16 -32 -27 -15 -5 8 -11 7 -21 -1 -11 -9
-14 -8 -14 5 0 10 -4 14 -10 11 -5 -3 -10 -1 -10 4 0 6 5 11 12 11 9 0 9 3 -1
13 -10 10 -17 7 -36 -16 l-24 -28 -21 21 c-11 11 -20 25 -20 31 0 13 -25 39
-39 39 -5 0 -14 -7 -19 -16 -8 -14 -12 -10 -23 22 -18 53 -20 65 -22 97 -3 42
-21 32 -41 -23 -19 -52 -107 -148 -129 -141 -7 2 -19 4 -26 5 -8 2 -17 8 -19
14 -7 21 -24 13 -20 -10 1 -13 -1 -24 -5 -25 -5 -1 -19 -9 -32 -17 -23 -15
-25 -15 -37 4 -7 11 -18 20 -25 20 -7 0 -18 18 -24 40 -11 37 -9 49 21 138 18
53 38 100 43 104 6 3 10 22 10 42 0 32 7 40 28 38 10 -2 -2 37 -14 45 -6 4 -8
0 -4 -9 17 -46 -55 -43 -178 7 -16 7 -45 18 -62 25 -18 7 -33 19 -33 27 0 12
3 12 16 -1 23 -24 25 -19 6 13 -16 28 -16 31 3 51 16 18 17 23 5 30 -11 7 -11
10 -2 10 10 0 10 5 2 20 -8 15 -17 19 -31 15 -21 -7 -24 2 -9 25 6 10 10 11
10 3 0 -7 5 -13 11 -13 5 0 7 5 4 10 -6 9 8 14 28 11 13 -2 7 18 -9 27 -15 8
-15 10 0 15 10 4 14 3 11 -2 -3 -5 -1 -12 5 -16 5 -3 11 -1 11 4 3 21 4 26 12
39 5 7 16 11 25 10 9 -2 17 2 17 9 0 6 4 15 9 20 5 5 6 3 2 -4 -9 -15 10 -18
19 -3 4 6 11 7 17 4 8 -5 9 -1 5 10 -4 9 -3 15 2 11 6 -3 14 2 19 11 8 14 10
12 10 -9 0 -16 -6 -28 -14 -28 -8 -1 -18 -3 -24 -4 -5 -1 -13 -3 -17 -4 -5 -1
-1 -5 7 -11 9 -5 19 -5 27 1 8 7 18 7 32 0 24 -13 42 -14 20 -1 -9 5 -15 19
-13 32 1 13 3 26 3 30 1 4 8 4 18 1 11 -4 14 -3 9 5 -4 7 -2 12 4 12 6 0 9 -8
6 -18 -4 -13 -1 -19 9 -19 9 0 13 6 10 16 -2 9 -1 22 4 29 11 19 23 -11 14
-35 -6 -16 -5 -16 10 -4 9 7 15 17 12 21 -7 11 32 43 44 36 5 -3 12 0 14 6 3
8 6 6 6 -4 1 -10 6 -18 12 -18 6 0 9 6 6 14 -4 10 3 13 29 10 19 -2 33 0 30 4
-2 4 17 7 42 8 26 0 41 -1 34 -4z m84 -46 c-1 -16 -7 -24 -18 -23 -15 1 -16 3
-3 17 8 9 12 20 8 23 -3 4 -2 7 4 7 6 0 10 -11 9 -24z m-651 -195 c3 -5 2 -12
-3 -15 -5 -3 -9 1 -9 9 0 17 3 19 12 6z m49 -9 c2 -4 -5 -9 -17 -9 -17 -2 -19
0 -7 7 18 12 18 12 24 2z m-83 -47 c5 4 6 -1 3 -10 -5 -11 -2 -14 10 -9 9 3
13 10 10 15 -9 15 3 10 17 -8 12 -14 12 -16 0 -8 -11 6 -13 3 -9 -13 4 -12 2
-20 -2 -17 -5 3 -11 1 -15 -5 -3 -5 -1 -10 6 -10 9 0 9 -3 0 -14 -10 -11 -9
-21 4 -45 8 -17 18 -31 21 -31 3 0 2 5 -1 10 -3 6 -1 10 4 10 6 0 11 -5 11
-11 0 -5 5 -7 10 -4 6 4 19 3 28 -1 9 -4 19 -8 22 -8 3 -1 33 -12 68 -25 45
-17 64 -30 68 -45 3 -12 -9 -65 -26 -118 -22 -71 -36 -98 -50 -103 -11 -4 -20
-11 -20 -16 0 -8 -79 -3 -89 6 -2 3 -10 -3 -18 -13 -12 -16 -13 -16 -7 1 5 13
2 16 -10 11 -9 -3 -16 -10 -16 -15 0 -4 -7 -6 -15 -3 -17 7 -20 50 -6 87 5 13
5 30 1 37 -5 8 -4 22 1 32 5 10 6 18 1 18 -4 0 -9 14 -10 30 -1 18 2 30 10 30
6 0 3 7 -8 15 -18 14 -17 15 11 10 18 -3 23 -2 14 2 -13 6 -14 14 -8 32 7 19
12 21 23 12 11 -9 16 -9 22 0 4 7 3 9 -3 6 -12 -8 -36 17 -39 40 -2 8 -6 18
-10 21 -4 4 -4 -1 -1 -10 3 -10 2 -20 -4 -24 -6 -4 -5 -12 3 -22 11 -13 11
-14 -1 -8 -10 7 -12 3 -6 -13 4 -14 2 -21 -6 -21 -7 0 -9 3 -6 7 4 3 2 12 -4
20 -9 10 -8 13 2 13 10 1 8 4 -3 11 -22 12 -23 29 -3 29 8 0 15 5 15 11 0 6
-7 9 -15 6 -8 -4 -17 -2 -20 3 -3 4 6 7 20 5 16 -1 24 2 22 9 -2 6 -11 10 -19
10 -14 -1 -15 9 -9 59 1 5 6 5 12 1 8 -4 9 1 5 17 -3 13 -3 18 0 11 3 -6 10
-10 15 -7z m2104 -64 c3 -5 2 -12 -3 -15 -5 -3 -9 1 -9 9 0 17 3 19 12 6z
m-3977 -549 c2 -15 0 -23 -4 -20 -4 4 -8 19 -10 34 -3 34 9 21 14 -14z m47 28
c7 -12 -12 -40 -26 -40 -5 0 -9 11 -9 25 0 25 23 35 35 15z m3834 -466 c-11
-13 -11 -15 2 -12 8 1 15 -1 16 -6 1 -5 7 -12 14 -17 7 -4 13 -21 14 -38 1
-17 -1 -28 -4 -25 -3 3 -6 9 -6 12 -2 27 -19 52 -35 52 -10 0 -17 6 -16 13 2
15 15 37 23 37 3 0 0 -7 -8 -16z m-3693 -155 c15 -17 15 -19 1 -19 -8 0 -21
-2 -29 -5 -21 -8 -38 9 -32 32 7 24 34 21 60 -8z m369 18 c0 -16 -102 -77
-129 -77 -20 0 -14 26 13 59 19 23 30 27 69 26 26 -1 47 -4 47 -8z m305 -27
c16 -32 26 -40 48 -40 41 0 70 -10 76 -27 9 -22 -55 -12 -131 22 -63 28 -77
47 -51 73 21 21 37 13 58 -28z m3080 19 c0 -14 -17 -10 -23 5 -4 10 -1 13 9 9
7 -3 14 -9 14 -14z m-3880 1 c0 -5 -2 -10 -4 -10 -3 0 -8 5 -11 10 -3 6 -1 10
4 10 6 0 11 -4 11 -10z m170 -1 c26 -10 29 -13 16 -21 -10 -6 -24 -3 -41 8
-41 27 -30 32 25 13z m114 -65 c3 -8 2 -12 -4 -9 -6 3 -10 10 -10 16 0 14 7
11 14 -7z m3552 3 c4 -4 1 -7 -7 -7 -10 0 -11 -2 -2 -8 8 -5 1 -13 -20 -26
-31 -18 -31 -18 -14 2 10 10 15 26 11 35 -6 16 18 19 32 4z m-2549 -21 c3 -3
-1 -6 -10 -6 -23 0 -29 -1 -54 -11 -13 -5 -25 -4 -28 1 -4 6 4 10 17 10 16 0
19 3 10 9 -8 5 0 7 23 6 20 -1 39 -5 42 -9z m11 -63 c-3 -43 -6 -48 -28 -49
-35 -3 -88 24 -96 48 -8 25 -3 29 43 35 21 3 40 7 42 9 2 2 13 4 23 4 17 0 19
-7 16 -47z m218 22 c2 -10 -1 -26 -6 -34 -5 -9 -10 -11 -11 -6 -7 52 -7 66 3
63 6 -2 13 -13 14 -23z m1867 -73 c-6 -14 -4 -15 9 -5 8 7 17 10 21 7 8 -9 -4
-35 -13 -29 -5 3 -11 1 -15 -5 -4 -6 -11 -8 -16 -5 -5 4 -9 2 -9 -3 0 -5 -6
-9 -14 -9 -7 0 -13 7 -11 16 1 9 7 16 14 16 15 0 31 26 24 39 -3 5 -1 6 5 2 6
-4 8 -14 5 -24z m364 10 c-11 -12 -13 -22 -6 -34 8 -14 4 -20 -20 -33 -27 -13
-30 -13 -25 0 3 8 10 12 15 9 5 -3 9 0 9 5 0 6 -5 11 -12 11 -6 0 1 14 17 30
30 32 49 42 22 12z m-271 -42 c5 1 10 -4 12 -12 2 -9 1 -9 -5 -2 -4 6 -16 10
-25 9 -11 -2 -15 2 -11 12 4 10 8 11 13 3 4 -6 11 -11 16 -10z m-236 -74 c0
-2 -7 -7 -16 -10 -8 -3 -12 -2 -9 4 6 10 25 14 25 6z m-89 -74 c-5 -9 -16 -17
-25 -18 -12 -2 -14 2 -6 15 5 10 16 18 24 18 11 0 13 -5 7 -15z m-1010 -95
c-10 -9 -11 -8 -5 6 3 10 9 15 12 12 3 -3 0 -11 -7 -18z"/>
<path d="M2660 4663 c-8 -10 -11 -15 -6 -11 5 4 17 3 27 -2 12 -7 20 -7 24 0
4 6 11 7 17 4 7 -5 8 -2 3 5 -5 9 -10 10 -18 2 -7 -7 -14 -6 -22 5 -10 14 -13
14 -25 -3z"/>
<path d="M2745 4661 c-7 -12 12 -24 25 -16 11 7 4 25 -10 25 -5 0 -11 -4 -15
-9z"/>
<path d="M2145 3241 c2 -9 4 -18 4 -20 1 -2 8 2 16 9 16 14 13 23 -9 26 -8 1
-13 -5 -11 -15z"/>
<path d="M2508 3233 c7 -3 16 -2 19 1 4 3 -2 6 -13 5 -11 0 -14 -3 -6 -6z"/>
<path d="M3143 2343 c5 -7 -9 -10 -37 -9 -32 2 -43 -1 -39 -10 5 -13 -34 -13
-56 0 -6 4 -18 1 -26 -7 -13 -13 -12 -16 2 -21 9 -4 21 -2 26 3 7 7 17 6 30 0
15 -9 18 -8 11 3 -6 11 -5 11 9 -1 17 -13 21 -9 19 19 0 3 12 6 26 6 15 1 21
-1 14 -3 -6 -3 -9 -9 -6 -14 4 -6 10 -6 18 0 9 8 13 7 13 -3 0 -8 -8 -13 -19
-11 -12 3 -16 0 -12 -7 5 -7 2 -8 -6 -3 -8 5 -11 4 -7 -2 3 -5 0 -10 -8 -10
-8 0 -11 5 -8 11 4 6 -1 5 -10 -3 -9 -7 -17 -10 -17 -7 0 4 -8 2 -18 -3 -13
-7 -22 -7 -30 1 -13 13 -35 1 -29 -16 3 -7 -1 -13 -9 -13 -12 0 -12 4 1 24 17
25 5 32 -14 9 -7 -8 -21 -13 -32 -11 -22 4 -25 -5 -6 -24 10 -11 9 -12 -2 -6
-10 6 -12 4 -6 -5 6 -9 4 -11 -4 -6 -7 5 -10 10 -7 13 8 9 -13 43 -27 42 -9 0
-8 -2 1 -6 10 -4 10 -8 0 -21 -10 -12 -10 -14 0 -8 11 7 16 -3 10 -21 -4 -11
-32 -10 -40 1 -4 6 -13 4 -24 -5 -19 -16 -24 -16 -34 1 -5 8 -13 9 -21 4 -8
-5 -21 -9 -29 -9 -10 0 -14 -9 -13 -28 1 -15 -2 -25 -6 -22 -5 3 -12 -2 -15
-11 -3 -8 -10 -13 -15 -10 -13 8 -21 -20 -10 -31 18 -18 19 -57 1 -77 -9 -11
-11 -16 -4 -12 6 4 12 3 12 -3 0 -5 -5 -11 -11 -13 -7 -2 -4 -10 7 -18 12 -11
15 -11 10 -2 -9 15 21 55 35 46 4 -2 13 5 19 16 8 16 8 22 -3 26 -14 5 -20 34
-7 34 7 0 24 -31 33 -60 4 -11 6 -11 6 3 1 10 -6 28 -14 41 -14 21 -14 24 -1
29 9 4 18 2 21 -3 4 -6 1 -10 -5 -10 -6 0 -8 -4 -5 -10 7 -12 55 -9 55 3 0 5
-10 5 -22 1 -20 -6 -21 -5 -9 10 9 10 22 14 35 11 16 -5 18 -4 6 4 -8 5 -11
13 -7 17 3 4 15 1 24 -7 17 -13 17 -13 3 5 -14 18 -13 19 3 13 10 -4 21 -7 23
-7 3 0 2 -5 -2 -12 -4 -7 -3 -8 5 -4 6 4 9 12 5 17 -3 5 0 16 6 24 14 17 45
21 35 5 -3 -5 -1 -10 5 -10 7 0 9 8 5 20 -4 11 -3 20 2 19 23 -4 32 2 26 19
-5 14 -3 15 7 5 11 -10 19 -8 39 10 l25 22 -18 -28 c-10 -16 -15 -31 -12 -35
3 -3 6 0 6 6 0 6 14 19 31 28 26 13 33 14 41 2 6 -9 7 -6 3 10 -7 23 -7 23 19
7 28 -19 35 -30 12 -22 -10 4 -13 1 -9 -9 4 -12 8 -12 20 -2 13 11 12 14 -6
29 -11 9 -17 19 -14 23 4 3 15 -2 26 -11 11 -10 17 -12 13 -5 -4 6 -2 12 3 12
6 0 11 -8 11 -17 0 -14 4 -12 17 7 20 29 25 50 12 50 -6 0 -7 6 -3 13 5 9 4 9
-6 0 -13 -12 -43 -6 -35 7 3 5 0 12 -6 16 -7 4 -9 3 -6 -3z m33 -50 c13 -17
14 -17 8 2 -5 16 -4 17 4 5 6 -8 9 -17 6 -21 -5 -9 -51 -5 -62 5 -4 4 0 6 8 4
8 -1 14 3 13 10 -4 17 8 15 23 -5z m-162 -32 c3 -5 0 -14 -7 -19 -10 -8 -13
-6 -14 9 -2 19 11 26 21 10z m66 3 c0 -2 -9 -8 -20 -14 -15 -8 -18 -8 -14 3 4
11 34 21 34 11z m-124 -33 c1 -14 0 -21 -3 -14 -2 6 -19 -3 -41 -23 -20 -18
-39 -29 -42 -24 -3 5 -23 -4 -43 -21 l-37 -30 -11 25 c-7 14 -15 23 -19 21 -4
-3 -14 3 -21 13 -12 15 -12 16 2 5 9 -7 19 -10 23 -6 4 4 -4 13 -16 20 l-23
14 23 -6 c13 -4 22 -2 22 5 0 6 10 4 25 -6 23 -15 25 -15 31 0 3 9 11 13 18 9
18 -12 40 -12 53 -1 7 6 13 7 13 3 0 -4 6 -2 14 5 8 6 13 17 10 24 -3 7 1 13
8 13 7 0 14 -12 14 -26z m-193 -84 c4 3 7 2 7 -4 0 -6 -7 -14 -16 -17 -8 -3
-12 -2 -9 3 3 5 1 12 -5 16 -5 3 -10 3 -11 -2 -6 -48 -4 -66 7 -70 7 -2 10
-11 7 -19 -3 -8 -9 -12 -13 -9 -5 3 -11 1 -15 -5 -3 -5 -11 -10 -16 -10 -6 0
-7 5 -2 13 13 20 9 61 -7 75 -13 10 -12 11 4 5 13 -4 17 -3 12 5 -9 15 25 33
40 21 6 -5 14 -6 17 -2z"/>
<path d="M2895 2200 c-3 -6 -19 -8 -35 -5 -16 3 -32 1 -35 -5 -4 -7 -12 -7
-25 0 -25 13 -27 13 -27 -5 0 -8 4 -15 9 -15 4 0 7 -3 7 -7 -5 -31 4 -32 37
-5 20 17 42 28 49 26 6 -3 18 2 25 11 7 8 10 15 7 15 -3 0 -9 -5 -12 -10z
m-69 -31 c-15 -12 -30 -19 -33 -15 -4 3 0 6 8 6 12 0 11 2 -1 11 -13 9 -12 10
2 5 10 -3 20 -1 23 4 4 6 11 10 17 10 6 0 -1 -10 -16 -21z"/>
<path d="M3090 2299 c0 -5 5 -7 10 -4 6 3 10 8 10 11 0 2 -4 4 -10 4 -5 0 -10
-5 -10 -11z"/>
<path d="M3015 2290 c-8 -13 9 -20 24 -11 10 6 9 10 -3 14 -8 3 -18 2 -21 -3z"/>
<path d="M3425 2274 c-10 -8 -15 -15 -9 -16 5 0 14 -2 19 -3 6 -2 16 -3 23 -4
7 0 11 -5 8 -10 -7 -11 13 -9 32 2 6 5 12 4 12 -2 0 -5 -4 -13 -10 -16 -5 -3
-10 -12 -9 -18 0 -9 2 -8 6 1 2 6 10 9 15 6 6 -4 8 -2 4 4 -3 6 -2 13 4 17 5
3 10 1 10 -5 0 -6 5 -8 11 -4 8 4 5 10 -7 17 -11 6 -22 14 -25 19 -3 6 -9 2
-13 -7 -3 -9 -11 -13 -17 -9 -8 4 -7 9 2 16 10 6 7 7 -10 3 -15 -5 -21 -3 -17
3 11 17 -8 21 -29 6z"/>
<path d="M3358 2253 c7 -3 16 -2 19 1 4 3 -2 6 -13 5 -11 0 -14 -3 -6 -6z"/>
<path d="M3310 2246 c0 -2 9 -6 20 -9 11 -3 18 -1 14 4 -5 9 -34 13 -34 5z"/>
<path d="M3390 2240 c0 -5 5 -10 10 -10 6 0 10 5 10 10 0 6 -4 10 -10 10 -5 0
-10 -4 -10 -10z"/>
<path d="M3236 2227 c3 -10 9 -15 12 -12 3 3 0 11 -7 18 -10 9 -11 8 -5 -6z"/>
<path d="M3056 2222 c-3 -5 1 -9 9 -9 8 0 15 4 15 9 0 4 -4 8 -9 8 -6 0 -12
-4 -15 -8z"/>
<path d="M3415 2220 c-3 -5 -1 -10 4 -10 6 0 11 5 11 10 0 6 -2 10 -4 10 -3 0
-8 -4 -11 -10z"/>
<path d="M2990 2201 c0 -6 4 -13 10 -16 6 -3 7 1 4 9 -7 18 -14 21 -14 7z"/>
<path d="M2960 2186 c0 -2 7 -7 16 -10 8 -3 12 -2 9 4 -6 10 -25 14 -25 6z"/>
<path d="M3590 2180 c0 -6 4 -9 9 -6 5 4 12 1 14 -4 3 -6 4 -5 3 2 -3 15 -26
23 -26 8z"/>
<path d="M2913 2155 c0 -8 4 -12 9 -9 5 3 6 10 3 15 -9 13 -12 11 -12 -6z"/>
<path d="M3639 2158 c-6 -20 -6 -39 0 -42 4 -3 7 6 7 20 0 20 -4 32 -7 22z"/>
<path d="M3596 2138 c3 -5 10 -6 15 -3 13 9 11 12 -6 12 -8 0 -12 -4 -9 -9z"/>
<path d="M2913 2115 c0 -8 4 -12 9 -9 5 3 6 10 3 15 -9 13 -12 11 -12 -6z"/>
<path d="M2849 2103 c-13 -16 -12 -17 4 -4 9 7 17 15 17 17 0 8 -8 3 -21 -13z"/>
<path d="M2717 2013 c-10 -9 -9 -23 1 -23 5 0 9 7 9 15 0 17 -1 18 -10 8z"/>
<path d="M3575 1450 c3 -5 8 -10 11 -10 2 0 4 5 4 10 0 6 -5 10 -11 10 -5 0
-7 -4 -4 -10z"/>
<path d="M2562 2021 c-11 -7 -10 -10 3 -15 20 -7 35 0 35 17 0 8 -3 7 -9 -2
-5 -8 -10 -9 -12 -2 -2 6 -10 7 -17 2z"/>
<path d="M2566 1986 c10 -8 21 -12 24 -10 5 6 -21 24 -34 24 -6 0 -1 -6 10
-14z"/>
<path d="M2560 1920 c-9 -6 -10 -10 -3 -10 6 0 15 5 18 10 8 12 4 12 -15 0z"/>
<path d="M2655 1889 c-4 -6 -5 -12 -2 -15 2 -3 7 2 10 11 7 17 1 20 -8 4z"/>
<path d="M2607 1859 c7 -7 15 -10 18 -7 3 3 -2 9 -12 12 -14 6 -15 5 -6 -5z"/>
<path d="M2456 4638 c3 -5 10 -6 15 -3 13 9 11 12 -6 12 -8 0 -12 -4 -9 -9z"/>
<path d="M2516 4642 c-2 -4 -1 -14 4 -22 7 -11 9 -9 7 8 -1 24 -3 26 -11 14z"/>
<path d="M2435 4611 c-3 -5 -2 -12 3 -15 5 -3 9 1 9 9 0 17 -3 19 -12 6z"/>
<path d="M1596 4487 c3 -10 9 -15 12 -12 3 3 0 11 -7 18 -10 9 -11 8 -5 -6z"/>
<path d="M1420 4431 c0 -6 4 -13 10 -16 6 -3 7 1 4 9 -7 18 -14 21 -14 7z"/>
<path d="M1500 4396 c0 -2 7 -9 15 -16 9 -7 15 -8 15 -2 0 5 -7 12 -15 16 -8
3 -15 4 -15 2z"/>
<path d="M3197 4323 c-4 -3 -7 -11 -7 -17 0 -6 5 -5 12 2 6 6 9 14 7 17 -3 3
-9 2 -12 -2z"/>
<path d="M3233 4305 c-3 -9 -3 -18 -1 -21 3 -3 8 4 11 16 6 23 -1 27 -10 5z"/>
<path d="M3150 4259 c0 -5 5 -7 10 -4 6 3 10 8 10 11 0 2 -4 4 -10 4 -5 0 -10
-5 -10 -11z"/>
<path d="M3270 4261 c0 -6 4 -13 10 -16 6 -3 7 1 4 9 -7 18 -14 21 -14 7z"/>
<path d="M1263 3975 c0 -8 4 -12 9 -9 5 3 6 10 3 15 -9 13 -12 11 -12 -6z"/>
<path d="M1260 3943 c0 -1 8 -7 18 -12 13 -7 19 -6 19 2 0 7 -9 13 -19 13 -10
0 -18 -1 -18 -3z"/>
<path d="M3355 3929 c-4 -6 -5 -12 -2 -15 2 -3 7 2 10 11 7 17 1 20 -8 4z"/>
<path d="M3317 3815 c-4 -8 -1 -17 6 -21 7 -4 9 -4 5 1 -4 4 -3 14 3 22 7 8 8
13 1 13 -5 0 -12 -7 -15 -15z"/>
<path d="M1136 3648 c3 -5 10 -6 15 -3 13 9 11 12 -6 12 -8 0 -12 -4 -9 -9z"/>
<path d="M3475 3060 c-3 -5 -1 -10 4 -10 6 0 11 5 11 10 0 6 -2 10 -4 10 -3 0
-8 -4 -11 -10z"/>
<path d="M1454 2985 c-4 -8 -12 -15 -20 -15 -8 0 -14 -5 -14 -10 0 -6 14 -3
33 6 41 21 41 20 22 28 -9 3 -18 -1 -21 -9z"/>
<path d="M3176 2861 c-10 -15 18 -31 34 -19 12 8 12 9 -2 4 -20 -6 -34 10 -16
17 9 4 10 6 1 6 -6 1 -14 -3 -17 -8z"/>
<path d="M4151 2720 c3 -29 -1 -40 -13 -37 -7 1 -12 -10 -12 -28 -1 -16 -4
-34 -7 -40 -7 -14 -6 -35 4 -35 4 0 12 0 19 0 6 0 3 7 -8 16 -10 8 -13 13 -6
9 17 -9 34 4 25 18 -12 19 -13 46 -3 52 6 4 7 -1 3 -11 -5 -13 -2 -15 18 -9
16 4 20 3 10 -3 -11 -8 -11 -10 0 -14 10 -3 10 -6 1 -12 -7 -4 -12 -2 -12 3 0
6 -5 11 -11 11 -6 0 -7 -5 -2 -12 10 -17 13 -39 4 -34 -4 3 -7 -6 -7 -19 0
-13 5 -21 12 -18 6 2 10 15 8 29 -1 14 3 24 9 23 26 -3 37 2 37 16 0 9 6 12
18 8 9 -3 14 -3 10 1 -3 4 -14 9 -25 11 -10 2 -19 4 -21 4 -1 1 2 9 7 19 8 15
5 18 -12 19 -12 0 -16 -1 -9 -4 6 -3 12 -9 12 -14 0 -6 -8 -5 -20 1 -11 6 -18
15 -15 20 3 6 1 18 -5 27 -8 14 -10 14 -9 3z m52 -101 c-9 -9 -12 -7 -10 9 1
14 5 18 11 12 7 -7 6 -14 -1 -21z"/>
<path d="M4176 2718 c3 -5 10 -6 15 -3 13 9 11 12 -6 12 -8 0 -12 -4 -9 -9z"/>
<path d="M4250 2659 c0 -5 5 -7 10 -4 6 3 10 8 10 11 0 2 -4 4 -10 4 -5 0 -10
-5 -10 -11z"/>
<path d="M4237 2613 c-10 -9 -9 -23 1 -23 5 0 9 7 9 15 0 17 -1 18 -10 8z"/>
<path d="M4194 2575 c3 -9 -3 -19 -15 -25 -11 -6 -16 -16 -13 -22 5 -7 2 -8
-6 -3 -9 6 -11 4 -5 -5 5 -8 4 -11 -2 -7 -6 4 -9 18 -8 32 4 31 -8 32 -37 3
-13 -13 -26 -22 -29 -21 -3 1 -5 -9 -3 -22 1 -14 -2 -27 -7 -31 -5 -3 -9 -10
-9 -16 0 -7 6 -6 15 2 12 10 15 10 15 -1 0 -12 2 -12 9 -1 6 11 10 10 15 -4 3
-9 10 -14 13 -10 4 4 12 -3 18 -15 11 -19 13 -19 18 -5 4 10 3 15 -3 11 -6 -3
-10 -1 -10 6 0 6 8 9 20 6 12 -3 18 -1 14 5 -3 5 -15 8 -25 5 -10 -3 -19 -1
-21 5 -2 5 -13 10 -25 11 -13 0 -25 7 -28 14 -3 10 0 11 15 3 26 -14 43 -13
37 4 -4 9 2 14 19 14 13 0 24 -4 24 -9 0 -5 -7 -9 -15 -9 -8 0 -15 -4 -15 -10
0 -12 22 -9 32 5 4 6 5 18 2 28 -5 17 -3 17 18 7 21 -10 21 -10 6 3 -22 17
-23 31 -3 24 8 -4 17 -1 21 5 4 6 3 8 -3 5 -6 -4 -14 0 -17 9 -5 12 -2 15 9
10 9 -3 13 -2 10 4 -10 16 -38 12 -31 -5z m-63 -39 c-5 -6 -7 -19 -6 -28 2
-10 -1 -18 -6 -18 -5 0 -9 5 -9 11 0 5 -4 7 -10 4 -6 -3 -7 1 -4 9 3 9 10 16
16 16 5 0 7 4 4 8 -3 5 1 9 9 9 9 0 11 -4 6 -11z"/>
<path d="M4233 2505 c0 -8 4 -15 9 -15 4 0 8 4 8 9 0 6 -4 12 -8 15 -5 3 -9
-1 -9 -9z"/>
<path d="M4195 2479 c-4 -6 -5 -12 -2 -15 2 -3 7 2 10 11 7 17 1 20 -8 4z"/>
<path d="M4099 2413 c-8 -9 -9 -14 -2 -10 7 4 14 0 17 -11 4 -10 18 -30 32
-43 26 -23 26 -23 13 -1 -8 12 -18 22 -22 22 -5 0 -7 8 -6 18 4 45 -8 55 -32
25z"/>
<path d="M4175 2420 c-3 -5 -1 -10 4 -10 6 0 11 5 11 10 0 6 -2 10 -4 10 -3 0
-8 -4 -11 -10z"/>
<path d="M4150 2391 c0 -6 3 -11 8 -12 4 0 18 -3 31 -5 14 -2 22 -2 19 2 -3 3
-12 6 -20 8 -7 1 -19 5 -25 9 -8 5 -13 4 -13 -2z"/>
<path d="M4198 2263 c7 -3 16 -2 19 1 4 3 -2 6 -13 5 -11 0 -14 -3 -6 -6z"/>
<path d="M4230 2240 c0 -5 5 -10 11 -10 5 0 7 5 4 10 -3 6 -8 10 -11 10 -2 0
-4 -4 -4 -10z"/>
<path d="M4675 2101 c-3 -5 -2 -12 3 -15 5 -3 9 1 9 9 0 17 -3 19 -12 6z"/>
<path d="M4713 2085 c0 -8 4 -12 9 -9 5 3 6 10 3 15 -9 13 -12 11 -12 -6z"/>
<path d="M4695 2020 c-4 -6 1 -7 11 -3 13 5 15 3 9 -7 -5 -9 -4 -11 4 -6 6 4
9 12 6 17 -8 12 -22 12 -30 -1z"/>
<path d="M4733 1975 c0 -8 4 -12 9 -9 5 3 6 10 3 15 -9 13 -12 11 -12 -6z"/>
<path d="M1903 1949 c9 -6 14 -15 11 -21 -4 -7 -2 -8 5 -4 14 9 -3 36 -23 36
-6 0 -3 -5 7 -11z"/>
<path d="M4705 1910 c-3 -5 -12 -7 -20 -3 -20 7 -19 -4 5 -34 11 -14 20 -20
20 -14 0 7 4 10 9 6 5 -3 13 0 18 7 11 19 13 39 2 32 -5 -3 -9 0 -9 5 0 14
-17 14 -25 1z m29 -29 c-10 -11 -34 -8 -45 5 -10 12 -9 13 5 8 9 -3 16 -1 16
5 0 8 4 8 14 -1 8 -7 12 -15 10 -17z"/>
<path d="M4755 1860 c3 -5 8 -10 11 -10 2 0 4 5 4 10 0 6 -5 10 -11 10 -5 0
-7 -4 -4 -10z"/>
<path d="M1384 1839 c-2 -5 -12 -6 -22 -3 -9 3 -6 -1 8 -10 14 -8 42 -15 62
-14 36 1 36 1 15 18 -23 18 -54 22 -63 9z"/>
<path d="M4714 1836 c-18 -14 -18 -15 -1 -21 17 -7 17 -8 0 -21 -16 -12 -16
-15 -3 -27 27 -22 23 -41 -10 -39 -3 0 -14 -12 -25 -26 -15 -21 -15 -24 -2
-13 9 7 17 10 17 5 0 -5 5 -2 10 6 5 8 18 16 29 16 16 1 18 -2 11 -16 -5 -10
-6 -21 -2 -25 4 -5 2 -5 -5 -1 -7 4 -10 13 -6 21 3 8 1 15 -5 15 -9 0 -21 -27
-26 -55 -1 -5 -9 -9 -19 -9 -9 1 -14 -2 -11 -7 10 -16 -9 -9 -23 9 -10 12 -13
13 -11 2 2 -9 -6 -15 -24 -15 -40 -1 -63 -28 -63 -72 0 -36 -9 -52 -29 -53 -5
0 -3 7 4 15 6 8 10 20 7 27 -4 9 -6 8 -6 -3 -1 -19 -31 -48 -31 -30 0 6 -5 11
-11 11 -5 0 -7 -6 -3 -12 5 -10 4 -10 -6 -1 -7 6 -19 9 -27 6 -11 -4 -10 -8 4
-20 10 -8 11 -11 3 -7 -13 7 -13 6 0 -11 8 -11 10 -16 3 -11 -9 5 -11 2 -7 -8
3 -9 2 -16 -3 -16 -9 0 -13 26 -13 80 0 18 -3 21 -9 11 -6 -9 -11 -10 -15 -2
-6 10 6 15 27 12 13 -2 7 16 -10 30 -9 8 -14 9 -10 3 4 -7 0 -17 -8 -24 -12
-10 -13 -16 -4 -26 6 -8 8 -14 5 -14 -4 0 -1 -10 5 -22 10 -20 10 -22 -2 -13
-8 6 -7 2 3 -7 18 -16 18 -17 -4 -32 -12 -9 -19 -16 -15 -16 4 0 2 -10 -4 -22
-6 -13 -8 -20 -4 -15 9 7 45 -20 45 -34 0 -4 -9 -6 -20 -4 -12 2 -24 -4 -30
-16 -7 -12 -7 -19 -1 -19 5 0 8 -11 5 -24 -5 -30 20 -54 40 -37 10 9 16 8 26
-4 7 -8 18 -15 24 -15 6 0 3 5 -7 11 -13 8 -15 15 -8 28 7 12 6 22 -2 31 -10
10 -8 12 8 6 19 -6 19 -5 2 8 -16 12 -17 18 -6 37 9 17 9 24 0 27 -6 2 -8 8
-5 13 3 6 12 5 22 -3 13 -11 14 -11 7 1 -6 11 -4 13 9 8 11 -4 15 -3 11 4 -4
6 -13 8 -21 5 -8 -3 -14 -1 -14 4 0 6 4 10 8 10 4 0 8 9 9 20 1 11 -2 20 -8
20 -5 0 -8 -3 -8 -7 3 -20 -2 -34 -11 -28 -18 11 3 36 51 60 29 15 46 30 43
38 -2 7 4 13 16 14 11 1 20 -2 20 -8 0 -5 5 -9 11 -9 8 0 9 4 0 13 -6 8 -8 17
-4 20 3 4 12 -1 20 -11 12 -16 13 -16 6 2 -4 13 -3 17 5 12 6 -3 14 -1 18 5 4
8 3 9 -4 5 -7 -4 -12 -2 -12 3 0 12 23 15 33 4 4 -3 2 -12 -4 -20 -15 -17 -1
-17 17 1 11 11 11 16 1 20 -6 4 -2 4 10 2 16 -3 20 0 16 13 -5 13 -3 14 8 4 7
-7 17 -13 23 -13 5 0 1 7 -10 16 -19 15 -19 15 2 9 24 -6 42 11 49 45 4 21 3
21 -14 6 -27 -24 -38 -19 -14 7 11 12 20 29 21 37 0 8 3 24 6 35 6 16 4 15 -6
-3 -8 -12 -17 -19 -21 -16 -4 4 -1 17 7 29 10 15 11 26 5 36 -8 11 -9 10 -7
-5 2 -10 -2 -21 -8 -23 -6 -2 -11 4 -11 14 0 21 16 45 26 38 4 -2 8 2 8 10 0
13 -2 13 -16 1 -11 -10 -21 -12 -31 -6 -13 8 -12 10 2 10 9 0 20 5 23 10 9 15
-8 12 -31 -4z m11 -56 c3 -5 1 -10 -4 -10 -6 0 -11 5 -11 10 0 6 2 10 4 10 3
0 8 -4 11 -10z m26 -93 c-10 -9 -11 -8 -5 6 3 10 9 15 12 12 3 -3 0 -11 -7
-18z m-26 -27 c-10 -16 15 -22 32 -8 15 12 15 11 4 -9 -7 -14 -17 -20 -27 -16
-8 3 -22 -1 -32 -9 -26 -23 -46 -33 -38 -20 12 20 -13 13 -34 -8 -11 -11 -20
-15 -20 -10 0 6 -9 1 -20 -10 -13 -13 -26 -18 -33 -13 -8 5 -5 9 10 11 14 2
21 10 20 23 -1 10 -6 17 -12 15 -5 -2 -9 -9 -7 -15 1 -7 -2 -9 -9 -5 -9 5 -5
13 10 26 26 21 41 23 41 7 0 -8 4 -8 13 -1 6 5 24 9 39 7 27 -3 37 8 47 51 0
3 6 2 11 -1 6 -4 8 -10 5 -15z m-242 -153 c4 3 7 2 7 -4 0 -6 -8 -14 -17 -17
-10 -4 -14 -4 -10 0 4 4 1 14 -6 23 -10 14 -10 14 4 4 9 -7 19 -10 22 -6z
m-23 -87 c0 -5 -5 -12 -10 -15 -8 -5 -8 -11 -1 -19 7 -9 6 -19 -5 -34 -12 -17
-12 -22 -2 -22 10 0 9 -3 -2 -9 -8 -6 -17 -8 -21 -5 -10 6 -5 -24 6 -33 4 -4
5 -3 1 4 -7 14 9 27 24 18 5 -3 7 -12 3 -21 -3 -8 -8 -12 -11 -10 -3 3 -10 2
-16 -4 -7 -5 -17 -5 -26 0 -11 7 -12 10 -2 10 8 0 10 5 5 13 -4 6 -8 22 -9 34
0 15 4 20 17 18 29 -6 33 14 10 39 -12 12 -18 26 -14 30 5 4 9 12 9 17 1 5 2
11 3 14 2 9 41 -15 41 -25z"/>
<path d="M4593 1606 c0 -16 13 -15 42 2 11 6 15 12 8 12 -6 0 -15 -5 -18 -10
-5 -8 -11 -8 -19 -1 -9 8 -13 7 -13 -3z"/>
<path d="M4423 1434 c4 -4 2 -13 -3 -19 -7 -8 -3 -18 12 -31 16 -13 19 -14 10
-2 -9 11 -10 18 -2 23 15 9 12 22 -7 29 -10 4 -14 4 -10 0z"/>
<path d="M4406 1332 c-3 -5 1 -9 9 -9 8 0 12 4 9 9 -3 4 -7 8 -9 8 -2 0 -6 -4
-9 -8z"/>
<path d="M4510 1632 c0 -5 -3 -18 -6 -26 -4 -12 -2 -15 9 -10 8 3 14 12 13 19
-3 18 -16 32 -16 17z"/>
<path d="M4472 1598 c-18 -18 -15 -27 8 -23 21 4 36 -10 21 -19 -5 -4 -13 -1
-17 5 -4 8 -9 7 -15 -2 -13 -21 -11 -26 9 -24 17 1 62 38 62 51 0 3 -8 4 -17
3 -32 -3 -44 1 -38 11 8 14 2 13 -13 -2z"/>
<path d="M4430 1591 c0 -6 5 -13 10 -16 6 -4 8 -16 5 -28 -5 -19 -5 -20 5 -5
8 13 8 23 0 38 -11 21 -20 26 -20 11z"/>
<path d="M4708 1563 c7 -3 16 -2 19 1 4 3 -2 6 -13 5 -11 0 -14 -3 -6 -6z"/>
<path d="M4626 1525 c-11 -8 -15 -15 -9 -15 6 0 16 7 23 15 16 19 11 19 -14 0z"/>
<path d="M4573 1523 c4 -6 1 -14 -5 -16 -10 -4 -10 -6 0 -6 7 -1 10 -6 6 -13
-4 -6 -3 -8 4 -5 12 8 10 32 -3 44 -4 4 -5 3 -2 -4z"/>
<path d="M4510 1480 c-9 -6 -10 -10 -3 -10 6 0 15 5 18 10 8 12 4 12 -15 0z"/>
<path d="M4521 1460 c-13 -11 -19 -20 -14 -20 6 0 18 9 28 20 23 25 17 25 -14
0z"/>
<path d="M4516 1418 c3 -5 10 -6 15 -3 13 9 11 12 -6 12 -8 0 -12 -4 -9 -9z"/>
<path d="M4470 1351 c0 -5 5 -13 10 -16 6 -3 10 -2 10 4 0 5 -4 13 -10 16 -5
3 -10 2 -10 -4z"/>
<path d="M4516 1338 c3 -5 10 -6 15 -3 13 9 11 12 -6 12 -8 0 -12 -4 -9 -9z"/>
<path d="M4490 1280 c0 -5 5 -10 11 -10 5 0 7 5 4 10 -3 6 -8 10 -11 10 -2 0
-4 -4 -4 -10z"/>
<path d="M4626 1017 c3 -9 10 -17 15 -17 18 0 24 -2 35 -11 7 -5 11 -4 11 5 0
8 -7 13 -16 11 -9 -1 -24 5 -34 13 -16 15 -17 14 -11 -1z"/>
<path d="M4706 958 c3 -5 10 -6 15 -3 13 9 11 12 -6 12 -8 0 -12 -4 -9 -9z"/>
<path d="M4564 938 c-3 -4 -2 -8 3 -8 4 0 1 -5 -7 -11 -12 -9 -11 -10 7 -6 13
3 26 0 30 -5 4 -7 1 -8 -7 -3 -9 6 -11 4 -5 -5 6 -10 4 -12 -9 -7 -9 4 -15 3
-12 -1 6 -10 -15 -37 -42 -51 -14 -7 -21 -18 -18 -27 3 -8 1 -14 -5 -14 -6 0
-7 -4 -4 -10 9 -14 -14 -51 -28 -45 -7 4 -5 0 4 -7 13 -11 14 -16 4 -25 -7 -7
-16 -10 -19 -7 -3 2 -4 1 -1 -3 9 -12 35 -12 35 0 0 7 14 24 32 40 18 15 26
26 18 25 -8 -2 -15 4 -15 12 0 8 -4 20 -8 27 -4 6 -2 15 4 19 7 4 9 3 6 -3 -4
-6 -1 -13 7 -16 19 -8 28 3 15 19 -8 9 -5 15 9 23 11 6 23 7 27 3 5 -4 5 1 2
10 -7 19 15 42 29 30 4 -4 3 0 -4 9 -6 9 -9 19 -5 22 3 4 1 7 -6 7 -7 0 -10 4
-7 8 3 5 -2 9 -10 9 -8 0 -17 -4 -20 -9z m-63 -195 c-12 -20 -14 -14 -5 12 4
9 9 14 11 11 3 -2 0 -13 -6 -23z"/>
<path d="M4655 820 c-3 -5 -1 -10 4 -10 6 0 11 5 11 10 0 6 -2 10 -4 10 -3 0
-8 -4 -11 -10z"/>
<path d="M4408 668 c-20 -20 -1 -27 19 -7 9 9 11 8 9 -3 -1 -8 -10 -24 -21
-34 -18 -18 -19 -18 -12 -1 5 13 3 17 -5 14 -7 -2 -12 -10 -10 -17 2 -11 0
-11 -11 -2 -11 10 -17 9 -28 -5 -10 -12 -11 -15 -1 -9 7 4 19 2 27 -4 10 -8
15 -9 15 -2 0 6 9 9 20 7 11 -2 20 0 20 6 0 5 5 8 11 7 6 -2 13 5 14 15 2 9
-1 17 -6 17 -6 0 -8 4 -5 9 3 5 0 13 -7 18 -8 7 -18 4 -29 -9z"/>
<path d="M4574 678 c-4 -7 -4 -10 1 -6 4 4 15 2 24 -5 14 -11 14 -10 2 6 -16
20 -18 21 -27 5z"/>
<path d="M3969 633 c-1 -5 -1 -11 0 -15 0 -5 -3 -8 -9 -8 -5 0 -10 5 -10 10 0
6 -8 5 -20 -2 -14 -9 -16 -14 -7 -20 9 -6 8 -10 -3 -18 -10 -6 -11 -10 -2 -10
6 0 12 -4 12 -9 0 -5 -13 -8 -30 -6 -16 2 -30 -1 -30 -6 0 -6 -4 -8 -10 -4
-15 9 -52 -34 -46 -53 5 -13 2 -12 -9 2 -8 11 -15 17 -15 13 0 -11 24 -51 35
-59 16 -12 13 -31 -9 -57 -12 -13 -16 -21 -9 -17 6 3 14 2 18 -4 4 -6 11 -8
16 -5 5 4 9 2 9 -4 0 -5 -5 -13 -10 -16 -6 -4 -8 -10 -5 -15 3 -5 2 -11 -3
-14 -5 -3 -8 -29 -7 -58 0 -44 -3 -56 -22 -71 -33 -26 -28 -40 7 -22 19 10 28
20 23 28 -5 8 -2 8 9 -1 17 -13 18 -36 3 -49 -4 -4 -5 -1 -1 7 5 8 -3 2 -18
-15 -14 -16 -23 -36 -21 -42 2 -7 0 -13 -5 -13 -14 0 -12 23 3 40 10 12 9 12
-6 0 -15 -11 -20 -11 -35 4 -16 16 -16 17 1 10 10 -3 17 -1 17 5 0 6 -9 11
-20 11 -24 0 -26 -13 -5 -30 13 -10 13 -15 3 -21 -7 -5 -20 -1 -30 8 -10 9
-18 12 -18 7 0 -5 -4 -3 -9 5 -5 8 -17 16 -25 17 -9 1 -14 -2 -10 -7 3 -5 10
-6 16 -3 7 4 8 2 4 -4 -4 -6 -13 -9 -21 -5 -11 4 -13 1 -9 -11 4 -11 11 -13
24 -6 9 5 20 6 24 3 8 -8 -13 -33 -28 -33 -6 0 -4 5 4 10 9 6 10 10 3 10 -6 0
-15 -5 -18 -10 -4 -6 -11 -7 -17 -4 -6 4 -19 -4 -30 -17 -11 -15 -16 -18 -12
-6 7 19 -11 24 -22 6 -4 -8 -9 -7 -15 2 -7 12 -9 12 -9 0 0 -12 -3 -11 -17 1
-10 9 -26 14 -35 13 -10 -2 -18 1 -18 7 0 6 -6 6 -15 -2 -8 -6 -19 -9 -24 -6
-5 4 -14 -2 -20 -11 -7 -13 -10 -14 -11 -4 0 8 -3 12 -6 8 -3 -3 -2 -12 2 -19
5 -7 9 -19 9 -27 0 -8 8 -15 18 -17 9 -1 15 2 11 7 -3 5 -10 7 -15 4 -5 -4 -9
-1 -9 4 0 15 17 14 43 -3 23 -16 54 -16 65 0 10 13 32 16 32 4 0 -5 -5 -10
-12 -10 -6 0 -9 -2 -6 -5 8 -8 58 16 58 27 0 5 5 6 10 3 8 -5 7 -11 -1 -21 -8
-10 -8 -14 0 -14 10 0 15 13 12 32 0 4 15 5 34 3 19 -3 37 0 40 6 5 7 11 6 20
-1 10 -8 16 -7 23 6 6 11 11 13 16 5 4 -6 13 -11 19 -11 7 0 4 5 -6 11 -17 10
-15 29 4 29 6 0 7 -5 3 -11 -8 -13 33 7 58 28 11 10 18 11 23 4 8 -14 25 -14
25 -1 0 6 -5 9 -11 8 -6 -2 -14 3 -16 10 -3 7 1 10 9 7 7 -3 20 -1 27 4 12 8
11 13 -10 30 -13 11 -19 20 -14 21 6 0 17 -6 24 -12 11 -11 12 -10 6 1 -6 11
-4 13 9 8 10 -4 15 -3 11 3 -4 6 -12 10 -18 9 -25 -3 -38 1 -32 11 3 5 13 7
23 4 14 -5 15 -4 2 5 -8 6 -11 11 -6 11 6 0 1 7 -10 16 -19 15 -19 16 1 10 19
-6 19 -5 3 7 -10 8 -16 16 -13 19 3 2 -1 5 -9 5 -7 0 -13 -9 -12 -20 1 -11 -6
-22 -14 -24 -9 -3 -11 -1 -5 4 15 12 17 33 3 33 -9 0 -8 4 2 10 13 9 13 11 0
20 -8 5 -10 10 -4 10 6 0 14 -3 18 -7 7 -8 11 -9 37 -12 5 0 7 -6 3 -13 -4 -6
-3 -8 4 -5 5 4 8 17 4 29 -3 12 -7 17 -10 10 -2 -7 -8 -10 -13 -7 -5 3 -3 14
3 25 10 15 9 23 -6 39 -11 12 -14 21 -8 21 6 0 14 -4 17 -10 3 -5 11 -10 17
-10 5 0 0 8 -12 18 l-23 19 23 16 24 17 -32 -5 c-34 -4 -38 1 -22 25 5 9 5 19
-1 27 -6 7 -7 18 -3 24 4 7 3 9 -4 5 -6 -3 -13 -2 -16 2 -3 5 7 9 22 8 17 0
26 4 24 13 -1 7 2 10 7 6 6 -3 7 -13 4 -23 -4 -11 4 -8 24 11 16 15 32 24 36
21 9 -9 38 16 32 27 -3 4 4 13 17 20 21 11 21 12 3 25 -21 16 -34 18 -36 7z
m21 -12 c0 -6 -5 -13 -11 -16 -6 -4 -8 -13 -5 -21 6 -16 -10 -29 -19 -14 -4 6
-12 8 -18 4 -7 -3 -1 4 13 17 14 12 24 26 23 30 -2 5 2 9 7 9 6 0 10 -4 10 -9z
m-144 -132 c10 -11 14 -20 9 -19 -21 5 -29 -1 -15 -10 9 -6 10 -10 3 -10 -17
0 -25 17 -13 25 8 5 7 11 -1 21 -18 22 -4 16 17 -7z m24 -71 c0 -4 -4 -8 -9
-8 -13 0 -8 -25 8 -44 8 -9 10 -23 6 -33 -5 -10 -7 -22 -6 -28 1 -5 -5 -1 -14
9 -11 14 -12 23 -4 32 12 14 3 38 -11 29 -16 -10 -20 12 -5 25 8 7 13 16 10
19 -2 4 2 8 10 8 8 0 15 -4 15 -9z m2 -211 c-7 -8 -11 -16 -9 -18 1 -2 -5 3
-14 11 -14 14 -14 16 0 27 20 15 39 -1 23 -20z m18 -69 c0 -5 -6 -8 -14 -6 -7
2 -23 -8 -34 -22 -11 -14 -24 -21 -29 -17 -4 5 6 20 22 33 17 14 29 30 27 36
-2 8 2 7 12 -2 9 -7 16 -17 16 -22z m-156 -59 c-3 -5 0 -9 5 -9 6 0 11 4 11 9
0 5 7 12 16 15 11 4 8 -3 -8 -23 -14 -18 -27 -25 -34 -20 -6 5 -14 6 -17 2 -4
-3 -24 -7 -46 -7 -27 -1 -37 2 -34 11 3 8 16 11 31 8 29 -5 66 21 55 39 -4 6
1 5 10 -3 9 -7 14 -17 11 -22z m-279 -30 c-4 -5 -12 -9 -18 -8 -9 0 -8 2 1 6
6 2 9 10 6 15 -4 7 -2 8 5 4 6 -4 9 -12 6 -17z m39 9 c8 13 30 10 52 -8 21
-18 17 -18 37 -2 15 13 16 8 8 -26 -1 -2 -7 0 -13 5 -22 13 -39 12 -45 -3 -4
-11 -8 -10 -22 6 -10 13 -21 17 -29 11 -11 -7 -10 -9 3 -14 11 -5 14 -3 9 6
-5 9 -4 9 6 0 19 -17 6 -27 -18 -14 -14 7 -18 17 -15 32 4 14 8 17 13 9 5 -8
10 -9 14 -2z"/>
<path d="M3711 77 c-8 -10 -7 -14 2 -14 8 0 14 6 14 14 0 7 -1 13 -2 13 -2 0
-8 -6 -14 -13z"/>
<path d="M3511 44 c6 -7 16 -11 21 -8 11 7 3 17 -18 20 -12 2 -13 -1 -3 -12z"/>
<path d="M4553 613 c0 -9 4 -10 14 -2 7 6 13 12 13 14 0 1 -6 2 -13 2 -8 0
-14 -6 -14 -14z"/>
<path d="M4150 590 c0 -5 7 -7 15 -4 8 4 15 8 15 10 0 2 -7 4 -15 4 -8 0 -15
-4 -15 -10z"/>
<path d="M4203 584 c9 -11 15 -24 12 -27 -3 -4 -2 -5 2 -2 4 3 8 16 9 28 2 12
0 16 -3 9 -4 -10 -8 -10 -21 0 -14 10 -14 9 1 -8z"/>
<path d="M4500 579 c0 -5 5 -7 10 -4 6 3 10 8 10 11 0 2 -4 4 -10 4 -5 0 -10
-5 -10 -11z"/>
<path d="M4397 527 c-3 -8 1 -14 8 -14 7 0 11 6 8 14 -3 7 -6 13 -8 13 -2 0
-5 -6 -8 -13z"/>
<path d="M4290 526 c0 -2 7 -7 16 -10 8 -3 12 -2 9 4 -6 10 -25 14 -25 6z"/>
<path d="M4440 520 c-9 -6 -10 -10 -3 -10 6 0 15 5 18 10 8 12 4 12 -15 0z"/>
<path d="M4030 499 c0 -5 5 -7 10 -4 6 3 10 8 10 11 0 2 -4 4 -10 4 -5 0 -10
-5 -10 -11z"/>
<path d="M4470 501 c0 -6 4 -13 10 -16 6 -3 7 1 4 9 -7 18 -14 21 -14 7z"/>
<path d="M3974 479 c-4 -7 -3 -9 4 -5 6 3 15 -2 21 -11 6 -10 11 -13 11 -7 0
20 -27 37 -36 23z"/>
<path d="M3914 415 c-4 -8 -11 -12 -17 -8 -6 3 -7 1 -3 -5 9 -15 33 -5 33 13
0 19 -6 19 -13 0z"/>
<path d="M2938 369 c10 -14 10 -18 -2 -22 -9 -4 -18 -2 -21 3 -3 5 -13 6 -22
3 -11 -4 -14 -3 -9 5 4 7 3 12 -2 12 -6 0 -13 -7 -16 -16 -3 -8 -10 -12 -16
-9 -5 3 -10 2 -10 -4 0 -5 5 -13 10 -16 8 -5 7 -11 -1 -21 -9 -11 -14 -12 -19
-3 -6 8 -9 8 -14 0 -4 -6 -3 -11 3 -11 10 0 9 -19 -2 -38 -5 -7 -13 -9 -19 -6
-7 5 -8 2 -4 -5 5 -8 3 -11 -6 -9 -7 2 -16 -1 -18 -7 -3 -5 9 -11 25 -11 40
-2 39 -2 26 -17 -6 -8 -7 -18 -3 -22 4 -5 2 -5 -4 -2 -7 4 -11 0 -10 -10 0 -9
-6 -18 -14 -21 -13 -4 -13 -3 -2 10 10 13 10 18 1 24 -8 5 -9 3 -4 -6 5 -9 4
-11 -4 -6 -7 5 -10 2 -9 -6 3 -15 -29 -18 -56 -5 -14 7 -16 6 -11 -4 5 -8 4
-10 -4 -5 -6 4 -9 12 -5 17 3 5 9 7 14 4 5 -3 11 -1 15 5 3 5 1 10 -6 10 -8 0
-8 4 1 15 7 8 8 15 3 15 -5 0 -16 -11 -23 -25 -7 -14 -17 -25 -22 -25 -5 0 -6
5 -2 12 4 6 -5 3 -19 -8 -27 -20 -34 -34 -17 -34 6 0 10 -5 10 -11 0 -5 -4 -8
-8 -5 -4 2 -13 -4 -20 -14 -7 -13 -8 -21 -2 -25 6 -4 9 -1 8 7 -2 9 7 12 30
11 23 -1 32 2 32 14 0 9 3 13 7 10 3 -4 16 -1 28 7 13 9 27 11 35 6 8 -5 23
-4 34 3 12 6 27 12 35 13 7 2 19 8 25 15 8 9 6 9 -11 0 -16 -8 -23 -8 -23 -1
0 6 10 15 23 20 20 8 20 9 2 10 -19 1 -19 1 -2 11 9 6 14 15 11 21 -4 6 -1 9
7 6 8 -3 13 -12 11 -22 -2 -9 1 -16 5 -16 5 0 9 9 10 20 1 11 -2 20 -6 20 -4
0 -16 7 -27 15 -18 14 -18 14 5 10 12 -2 29 -9 37 -16 9 -7 14 -8 14 -1 0 6
-6 12 -12 15 -7 2 -10 8 -6 12 4 4 14 2 23 -5 19 -16 20 -3 0 17 -8 8 -12 19
-9 25 3 5 12 0 21 -11 8 -12 22 -21 31 -20 16 0 16 1 0 7 -20 8 -13 21 21 45
25 17 51 9 51 -15 0 -6 -6 -5 -15 2 -11 9 -19 9 -35 -3 -18 -12 -19 -15 -5
-21 9 -3 13 -2 10 3 -9 15 14 24 29 12 7 -6 17 -7 21 -3 5 4 6 0 3 -9 -4 -9
-1 -16 7 -16 10 0 11 5 4 18 -6 11 -5 20 1 24 5 3 10 -2 11 -12 0 -16 1 -16 9
2 5 11 9 16 9 11 1 -5 8 -3 17 5 13 11 15 9 11 -12 -2 -13 -2 -18 0 -10 4 12
6 12 14 0 7 -11 9 -10 9 5 0 18 2 18 27 -5 18 -15 22 -17 11 -4 -16 20 -18 24
-18 47 0 6 -7 3 -15 -8 -13 -16 -14 -16 -9 -1 7 20 -6 23 -24 5 -9 -9 -12 -9
-13 3 -1 7 -1 17 0 22 3 17 -17 5 -27 -18 -6 -14 -17 -25 -24 -25 -9 0 -9 3 0
12 8 8 9 15 0 25 -9 11 -14 11 -29 -3 -11 -10 -19 -13 -19 -8 0 5 -5 2 -10 -6
-9 -13 -10 -13 -10 1 0 8 6 21 13 29 10 12 9 12 -5 1 -15 -11 -21 -11 -35 0
-16 13 -17 12 -5 -2z m96 -30 c-3 -5 -10 -7 -15 -3 -5 3 -7 10 -3 15 3 5 10 7
15 3 5 -3 7 -10 3 -15z m-134 2 c0 11 2 11 9 1 8 -14 32 -13 42 1 3 5 9 1 12
-8 4 -9 3 -13 -2 -10 -5 3 -13 -5 -16 -16 -7 -20 -8 -21 -17 -5 -8 13 -13 15
-24 5 -7 -6 -12 -15 -9 -19 6 -10 -16 -27 -32 -24 -7 1 -18 2 -24 3 -5 0 2 12
16 25 16 15 22 27 15 31 -6 3 -8 11 -4 16 4 6 11 6 20 -2 11 -9 14 -8 14 2z
m183 -4 c3 -8 -1 -14 -8 -14 -7 0 -11 6 -8 14 3 7 6 13 8 13 2 0 5 -6 8 -13z
m-237 -110 c1 -9 -2 -17 -7 -17 -5 0 -9 5 -9 11 0 6 -7 8 -16 5 -14 -5 -15 -4
-4 9 16 19 32 15 36 -8z m-126 -88 c8 2 12 0 8 -4 -5 -6 -28 -12 -51 -14 -5
-1 -6 -5 -3 -9 3 -5 -1 -9 -7 -9 -8 0 -12 11 -11 26 2 34 1 33 27 19 12 -7 29
-11 37 -9z"/>
<path d="M2877 330 c10 -11 9 -18 -8 -36 -17 -18 -18 -22 -5 -20 9 1 15 5 14
8 -2 3 6 16 17 29 11 13 16 21 11 17 -5 -4 -16 -2 -25 4 -13 10 -14 10 -4 -2z"/>
<path d="M2667 139 c7 -7 15 -10 18 -7 3 3 -2 9 -12 12 -14 6 -15 5 -6 -5z"/>
<path d="M3910 320 c0 -5 5 -10 11 -10 5 0 7 5 4 10 -3 6 -8 10 -11 10 -2 0
-4 -4 -4 -10z"/>
<path d="M3075 281 c-3 -5 -2 -12 3 -15 5 -3 9 1 9 9 0 17 -3 19 -12 6z"/>
<path d="M3134 279 c-3 -6 -2 -15 4 -21 6 -6 12 -6 17 3 6 8 4 10 -5 4 -10 -6
-12 -4 -7 8 7 19 2 23 -9 6z"/>
<path d="M3935 280 c-3 -5 -1 -10 4 -10 6 0 11 5 11 10 0 6 -2 10 -4 10 -3 0
-8 -4 -11 -10z"/>
<path d="M2310 260 c0 -5 5 -10 11 -10 5 0 7 5 4 10 -3 6 -8 10 -11 10 -2 0
-4 -4 -4 -10z"/>
<path d="M2386 256 c3 -9 13 -16 21 -16 8 0 11 -5 7 -12 -4 -6 -3 -8 4 -4 5 3
13 0 15 -6 4 -9 6 -9 6 -1 1 6 -12 21 -29 33 -22 16 -28 17 -24 6z"/>
<path d="M3170 262 c0 -5 7 -9 15 -9 8 0 12 4 9 9 -3 4 -9 8 -15 8 -5 0 -9 -4
-9 -8z"/>
<path d="M3913 250 c-1 -11 2 -20 7 -20 4 0 7 7 6 15 -3 23 -12 26 -13 5z"/>
<path d="M2946 238 c3 -5 10 -6 15 -3 13 9 11 12 -6 12 -8 0 -12 -4 -9 -9z"/>
<path d="M2455 219 c-4 -6 -5 -12 -2 -15 2 -3 7 2 10 11 7 17 1 20 -8 4z"/>
<path d="M2739 228 c-1 -2 -2 -19 -4 -38 -3 -30 0 -36 17 -37 11 -1 18 1 14 4
-8 8 14 34 24 28 4 -3 13 1 19 9 9 11 6 13 -14 10 -14 -1 -32 4 -40 13 -8 8
-15 13 -16 11z m31 -36 c0 -13 -12 -22 -22 -16 -10 6 -1 24 13 24 5 0 9 -4 9
-8z"/>
<path d="M2905 200 c-3 -6 1 -7 9 -4 18 7 21 14 7 14 -6 0 -13 -4 -16 -10z"/>
<path d="M3926 198 c3 -5 10 -6 15 -3 13 9 11 12 -6 12 -8 0 -12 -4 -9 -9z"/>
<path d="M2440 180 c8 -5 20 -10 25 -10 6 0 3 5 -5 10 -8 5 -19 10 -25 10 -5
0 -3 -5 5 -10z"/>
<path d="M2506 163 c-6 -14 -5 -15 5 -6 7 7 10 15 7 18 -3 3 -9 -2 -12 -12z"/>
<path d="M2536 172 c-3 -5 1 -9 9 -9 8 0 12 4 9 9 -3 4 -7 8 -9 8 -2 0 -6 -4
-9 -8z"/>
<path d="M3830 165 c-7 -8 -18 -15 -25 -15 -7 0 -16 -7 -19 -16 -5 -13 -4 -14
7 -6 8 7 16 10 18 8 2 -2 12 7 22 20 20 26 17 33 -3 9z"/>
<path d="M2879 158 c-5 -18 -6 -38 -1 -34 7 8 12 36 6 36 -2 0 -4 -1 -5 -2z"/>
<path d="M2590 143 c0 -3 6 -11 14 -19 13 -12 15 -12 13 4 -1 15 -27 29 -27
15z"/>
<path d="M2546 121 c8 -8 43 -8 38 0 -2 4 -13 7 -24 6 -10 -1 -17 -3 -14 -6z"/>
<path d="M2722 104 c-12 -8 -27 -25 -32 -37 -10 -19 -9 -20 2 -6 7 9 20 14 28
12 13 -4 13 -3 0 6 -8 6 -13 11 -10 12 32 6 58 4 69 -5 11 -8 13 -8 8 1 -4 6
-2 13 5 16 7 2 6 3 -3 2 -9 -1 -23 1 -31 6 -9 5 -23 2 -36 -7z"/>
<path d="M3599 112 c10 -7 10 -11 1 -17 -9 -6 -9 -9 1 -16 7 -4 19 -3 26 2 7
6 17 8 24 4 7 -5 6 1 -2 16 -11 20 -14 21 -17 7 -2 -10 -8 -18 -13 -18 -5 0
-8 5 -6 11 1 6 -5 14 -13 16 -12 4 -12 3 -1 -5z"/>
<path d="M3909 83 c-13 -16 -12 -17 4 -4 16 13 21 21 13 21 -2 0 -10 -8 -17
-17z"/>
<path d="M3854 82 c5 -8 -1 -12 -16 -13 -18 -1 -19 -2 -4 -6 23 -6 43 12 25
22 -8 5 -10 4 -5 -3z"/>
<path d="M2748 73 c7 -3 16 -2 19 1 4 3 -2 6 -13 5 -11 0 -14 -3 -6 -6z"/>
<path d="M3385 49 c-4 -6 -5 -12 -2 -15 2 -3 7 2 10 11 7 17 1 20 -8 4z"/>
<path d="M3795 31 c-3 -5 -2 -12 3 -15 5 -3 9 1 9 9 0 17 -3 19 -12 6z"/>
<path d="M3700 20 c-9 -6 -10 -10 -3 -10 6 0 15 5 18 10 8 12 4 12 -15 0z"/>
</g>
</svg>
